<svg width="170" height="56" viewBox="0 0 170 56" fill="none" xmlns="http://www.w3.org/2000/svg">
<path d="M81.8313 23.0625V29.9812C80.9694 30.6102 79.991 31.0994 78.966 31.4255C77.8944 31.7516 76.7762 31.9147 75.658 31.9147C74.3302 31.938 73.0257 31.705 71.7677 31.2391C70.6728 30.8198 69.6478 30.1908 68.8092 29.3755C67.9939 28.5602 67.3416 27.5818 66.9223 26.5102C66.4797 25.3454 66.2467 24.0875 66.27 22.8295C66.2467 21.5716 66.4564 20.3136 66.899 19.1255C67.295 18.0539 67.924 17.0755 68.716 16.2602C69.5314 15.4449 70.5098 14.8159 71.5813 14.3966C72.7927 13.9307 74.0739 13.721 75.3785 13.7443C76.0308 13.7443 76.7063 13.7909 77.3586 13.9074C77.941 14.0005 78.5001 14.1636 79.0359 14.3733C79.5484 14.5596 80.0143 14.7926 80.4802 15.0721C80.9228 15.3517 81.3188 15.6545 81.7148 16.004L80.9694 17.192C80.8762 17.3784 80.7131 17.4949 80.5035 17.5414C80.2938 17.588 80.0609 17.5414 79.8978 17.4017C79.6881 17.2852 79.4552 17.1221 79.1989 16.9591C78.8961 16.7727 78.5933 16.6096 78.2671 16.4932C77.8711 16.3301 77.4518 16.2136 77.0092 16.1437C76.4501 16.0272 75.891 15.9807 75.3086 16.004C74.4001 15.9807 73.5149 16.1437 72.6762 16.4699C71.9075 16.7727 71.2319 17.2386 70.6728 17.8443C70.1137 18.4733 69.6711 19.1954 69.3916 19.9875C69.0887 20.896 68.9257 21.8511 68.949 22.8062C68.9257 23.8079 69.0887 24.7863 69.4149 25.7181C69.6944 26.5335 70.1603 27.2789 70.7427 27.9079C71.3251 28.5136 72.0473 28.9795 72.8393 29.2823C73.7245 29.6085 74.6563 29.7715 75.5882 29.7482C75.9609 29.7482 76.3336 29.7249 76.7063 29.6784C77.0325 29.6318 77.3586 29.5619 77.6847 29.492C77.9876 29.4221 78.2904 29.3056 78.5933 29.1891C78.8961 29.0727 79.1756 28.9329 79.4552 28.7698V25.0426H76.8228C76.683 25.0426 76.52 24.996 76.4268 24.9028C76.3336 24.8096 76.2637 24.6698 76.2637 24.5301V23.0625H81.8313Z" fill="#8F8F8F"/>
<path d="M90.078 18.9392C90.94 18.9159 91.7786 19.079 92.5707 19.3818C93.2928 19.6614 93.9451 20.104 94.4809 20.6864C95.0167 21.2687 95.436 21.9676 95.6922 22.7131C96.2513 24.4602 96.2513 26.3238 95.6922 28.071C95.436 28.8165 95.0167 29.5153 94.4809 30.121C93.9451 30.6801 93.2928 31.1227 92.5707 31.4022C90.9633 32.0079 89.1695 32.0079 87.5621 31.4022C86.84 31.1227 86.1877 30.6801 85.6519 30.121C85.1161 29.5386 84.6968 28.8398 84.4406 28.071C83.8815 26.3238 83.8815 24.4602 84.4406 22.7131C84.6968 21.9676 85.1161 21.2687 85.6519 20.6864C86.1877 20.1273 86.84 19.6847 87.5621 19.3818C88.3775 19.079 89.2161 18.9392 90.078 18.9392ZM90.078 29.9812C91.2661 29.9812 92.1513 29.5852 92.7337 28.7932C93.3161 28.0011 93.6189 26.8596 93.6189 25.4153C93.6189 23.971 93.3161 22.8295 92.7337 22.0375C92.1513 21.2455 91.2661 20.8261 90.078 20.8261C88.8667 20.8261 87.9815 21.2222 87.3991 22.0375C86.8167 22.8528 86.5138 23.971 86.5138 25.4153C86.5138 26.8596 86.8167 27.9778 87.3991 28.7932C87.9815 29.5852 88.8667 29.9812 90.078 29.9812Z" fill="#8F8F8F"/>
<path d="M101.26 13.4647V31.705H98.837V13.4647H101.26Z" fill="#8F8F8F"/>
<path d="M115.214 13.4647V31.705H113.746C113.443 31.7283 113.164 31.5187 113.117 31.2158L112.907 29.7715C112.395 30.3772 111.789 30.8897 111.09 31.2857C110.368 31.6817 109.553 31.8681 108.737 31.8681C108.062 31.8681 107.41 31.7283 106.781 31.4488C106.198 31.1692 105.686 30.7499 105.29 30.2141C104.847 29.6084 104.521 28.9329 104.335 28.2107C104.102 27.3022 103.985 26.3937 104.008 25.4619C104.008 24.5766 104.125 23.7147 104.381 22.8761C104.614 22.1306 104.964 21.4085 105.453 20.8028C106.408 19.5914 107.876 18.8925 109.413 18.9158C110.694 18.8693 111.929 19.3818 112.768 20.3369V13.4647H115.214ZM112.791 22.1772C112.465 21.7113 112.022 21.3386 111.51 21.0823C111.02 20.8727 110.508 20.7562 109.972 20.7795C108.877 20.7795 108.015 21.1755 107.41 21.9675C106.804 22.7596 106.501 23.9244 106.501 25.4386C106.501 26.1141 106.548 26.813 106.711 27.4886C106.804 27.9778 107.014 28.4437 107.293 28.863C107.526 29.2124 107.876 29.492 108.248 29.655C108.644 29.8181 109.087 29.9113 109.529 29.9113C110.158 29.9346 110.787 29.7715 111.347 29.4454C111.906 29.0959 112.395 28.6533 112.791 28.1175V22.1772Z" fill="#8F8F8F"/>
<path d="M127.956 16.0972V22.0375H135.061V24.1807H127.956V31.7051H125.324V13.954H136.319V16.0972H127.956Z" fill="#8F8F8F"/>
<path d="M141.7 15.2585C141.7 15.4682 141.654 15.7011 141.561 15.8875C141.468 16.0971 141.351 16.2602 141.188 16.4233C140.885 16.7261 140.443 16.9125 140 16.9125C139.79 16.9125 139.557 16.8659 139.371 16.7727C139.185 16.6795 138.998 16.563 138.835 16.4233C138.672 16.2602 138.556 16.0971 138.486 15.8875C138.393 15.6778 138.346 15.4682 138.346 15.2585C138.346 15.0256 138.393 14.8159 138.486 14.6062C138.649 14.2102 138.975 13.8841 139.371 13.721C139.581 13.6278 139.79 13.5812 140 13.5812C140.443 13.5812 140.862 13.7676 141.188 14.0704C141.351 14.2335 141.468 14.3966 141.561 14.6062C141.677 14.8159 141.724 15.0256 141.7 15.2585ZM141.235 19.1488V31.7051H138.835V19.1488H141.235Z" fill="#8F8F8F"/>
<path d="M152.16 21.292C152.114 21.3852 152.044 21.4551 151.951 21.525C151.857 21.5715 151.764 21.5948 151.671 21.5948C151.508 21.5948 151.368 21.5483 151.228 21.4551C151.065 21.3619 150.879 21.2687 150.646 21.1522C150.39 21.0358 150.134 20.9426 149.854 20.8494C149.505 20.7562 149.132 20.7096 148.759 20.7096C148.433 20.7096 148.13 20.7562 147.827 20.8494C147.571 20.9193 147.315 21.0358 147.105 21.1988C146.919 21.3386 146.756 21.525 146.639 21.7346C146.523 21.9443 146.476 22.1772 146.476 22.4102C146.476 22.6897 146.569 22.9693 146.756 23.1789C146.965 23.4119 147.222 23.575 147.478 23.7147C147.804 23.8778 148.153 24.0176 148.503 24.1107L149.668 24.4835C150.064 24.6232 150.46 24.763 150.832 24.9261C151.205 25.0892 151.555 25.2988 151.857 25.5551C152.16 25.8113 152.417 26.1142 152.58 26.4636C152.766 26.8596 152.882 27.3022 152.859 27.7681C152.859 28.3272 152.766 28.8863 152.533 29.3988C152.323 29.888 151.997 30.3306 151.601 30.6801C151.159 31.0528 150.646 31.3556 150.087 31.542C149.411 31.7516 148.736 31.8681 148.037 31.8448C147.222 31.8448 146.406 31.705 145.638 31.4022C144.962 31.146 144.333 30.7732 143.797 30.3073L144.356 29.3755C144.426 29.259 144.496 29.1658 144.613 29.1193C144.729 29.0494 144.869 29.0261 145.009 29.0261C145.195 29.0261 145.358 29.096 145.498 29.1891C145.661 29.3056 145.871 29.4221 146.08 29.5619C146.336 29.7016 146.616 29.8414 146.919 29.9346C147.315 30.0511 147.734 30.121 148.153 30.0977C148.526 30.0977 148.876 30.0511 149.225 29.9346C149.505 29.8414 149.761 29.7016 149.994 29.5153C150.18 29.3522 150.343 29.1426 150.436 28.9096C150.53 28.6766 150.576 28.4204 150.576 28.1874C150.576 27.8846 150.483 27.6051 150.297 27.3721C150.087 27.1391 149.854 26.9528 149.574 26.813C149.248 26.6499 148.899 26.5102 148.55 26.3937C148.153 26.2772 147.757 26.1607 147.361 26.021C146.965 25.8812 146.569 25.7414 146.173 25.5551C145.801 25.392 145.451 25.159 145.148 24.9028C144.846 24.6232 144.589 24.2971 144.426 23.9477C144.24 23.5051 144.147 23.0392 144.17 22.5733C144.17 22.084 144.263 21.6181 144.473 21.1755C144.682 20.7329 144.985 20.3369 145.358 20.0108C145.777 19.6613 146.267 19.3818 146.779 19.1954C147.408 18.9858 148.06 18.8926 148.713 18.8926C149.481 18.8926 150.25 19.0091 150.972 19.2886C151.601 19.5216 152.207 19.8943 152.696 20.3835L152.16 21.292Z" fill="#8F8F8F"/>
<path d="M157.891 20.7329C158.403 20.2204 158.986 19.7778 159.638 19.4283C160.313 19.0789 161.082 18.9158 161.851 18.9391C162.48 18.9158 163.109 19.0556 163.668 19.2886C164.181 19.4982 164.623 19.8477 164.973 20.267C165.345 20.7096 165.625 21.2221 165.788 21.7579C165.974 22.3869 166.067 23.0391 166.067 23.6914V31.6817H163.645V23.6914C163.645 22.7829 163.435 22.1073 163.016 21.5948C162.596 21.0823 161.967 20.8494 161.129 20.8494C160.523 20.8494 159.917 20.9891 159.382 21.292C158.823 21.5948 158.31 22.0141 157.867 22.48V31.6817H155.468V13.4647H157.891V20.7329Z" fill="#8F8F8F"/>
<path d="M67.0622 42.4909V38.2744L66.34 38.2511C66.2701 38.2511 66.2468 38.2278 66.2468 38.1812V38.088H67.0389V37.6221C67.0389 37.3659 67.0855 37.1096 67.1553 36.8534C67.2252 36.6437 67.3417 36.4573 67.5048 36.2943C67.6678 36.1312 67.8309 36.0147 68.0406 35.9448C68.2735 35.875 68.5065 35.8284 68.7394 35.8284C68.8326 35.8284 68.9258 35.8284 69.0423 35.8517C69.1355 35.875 69.2286 35.8983 69.2985 35.9216L69.2752 36.038C69.2752 36.0613 69.2519 36.0613 69.2519 36.0613C69.2286 36.0613 69.2053 36.0613 69.1588 36.0613L69.019 36.038C68.9491 36.038 68.8559 36.038 68.786 36.038C68.5764 36.038 68.39 36.0613 68.1803 36.1079C67.994 36.1778 67.8309 36.271 67.6911 36.4108C67.5514 36.5505 67.4582 36.7136 67.3883 36.9C67.3184 37.1329 67.2718 37.3659 67.2718 37.5988V38.0647H69.9042V42.4676H69.648V38.2511H67.2485V42.4676H67.0622V42.4909Z" fill="#8F8F8F"/>
<path d="M75.9143 38.3909C75.891 38.4142 75.8677 38.4375 75.8444 38.4375C75.7978 38.4375 75.7512 38.4142 75.7279 38.3676C75.658 38.321 75.5881 38.2744 75.5182 38.2278C75.4018 38.1812 75.3086 38.1346 75.1921 38.0881C75.029 38.0415 74.866 38.0182 74.7029 38.0182C74.5398 38.0182 74.3535 38.0415 74.2137 38.1114C74.0739 38.1579 73.9342 38.2278 73.8177 38.321C73.7012 38.4142 73.6313 38.5074 73.5614 38.6471C73.4915 38.7636 73.4682 38.9034 73.4682 39.0199C73.4682 39.1596 73.5148 39.2994 73.5847 39.4159C73.6546 39.5324 73.7711 39.6256 73.8876 39.6721C74.0273 39.742 74.1671 39.8119 74.3069 39.8585L74.7961 40.0216C74.9592 40.0682 75.1222 40.1148 75.2853 40.1846C75.4251 40.2312 75.5648 40.3011 75.7046 40.3943C75.8211 40.4875 75.9376 40.5807 76.0074 40.7204C76.0773 40.8602 76.1239 41.0233 76.1239 41.1863C76.1239 41.3727 76.1006 41.5591 76.0307 41.7221C75.9609 41.8852 75.8677 42.0483 75.7279 42.1648C75.5881 42.3045 75.4251 42.3977 75.2387 42.4676C75.029 42.5375 74.8194 42.5841 74.5864 42.5841C74.4467 42.5841 74.2836 42.5608 74.1438 42.5375C74.0273 42.5142 73.8876 42.4676 73.7711 42.421C73.6546 42.3744 73.5614 42.3045 73.445 42.2346C73.3518 42.1648 73.2353 42.0949 73.1654 42.0017L73.2353 41.9318C73.2353 41.9085 73.2586 41.9085 73.2586 41.9085C73.2819 41.9085 73.3052 41.8852 73.3052 41.8852C73.3518 41.8852 73.3984 41.9318 73.445 41.9551C73.5148 42.025 73.5847 42.0716 73.6779 42.1182C73.7944 42.188 73.9109 42.2579 74.0506 42.2812C74.237 42.3278 74.4234 42.3511 74.6097 42.3511C74.7961 42.3511 74.9824 42.3278 75.1688 42.2579C75.3319 42.2113 75.4484 42.1182 75.5881 42.0017C75.7046 41.9085 75.7745 41.7687 75.8444 41.629C75.891 41.4892 75.9376 41.3261 75.9376 41.1863C75.9376 41.0466 75.9143 40.8835 75.8211 40.767C75.7512 40.6506 75.6347 40.5574 75.5182 40.4875C75.3785 40.4176 75.2387 40.3477 75.0989 40.3011L74.6097 40.1613C74.4467 40.1148 74.2836 40.0682 74.1205 39.9983C73.9807 39.9517 73.841 39.8818 73.7012 39.7886C73.5847 39.7187 73.4682 39.6023 73.3984 39.4858C73.3285 39.346 73.2819 39.1829 73.2819 39.0199C73.2819 38.8568 73.3285 38.717 73.3984 38.5773C73.4682 38.4375 73.5614 38.2977 73.7012 38.2045C73.841 38.0881 74.004 37.9949 74.1671 37.9483C74.3535 37.8784 74.5631 37.8551 74.7728 37.8551C75.0057 37.8551 75.2387 37.8784 75.4717 37.9716C75.6813 38.0415 75.891 38.1812 76.054 38.321L75.9143 38.3909Z" fill="#8F8F8F"/>
<path d="M79.5016 38.7869C79.7113 38.5074 79.9675 38.2744 80.2704 38.088C80.5732 37.925 80.8994 37.8318 81.2255 37.8318C81.4584 37.8318 81.6681 37.8784 81.9011 37.9483C82.0874 38.0182 82.2505 38.1346 82.367 38.2977C82.5067 38.4608 82.5999 38.6471 82.6465 38.8335C82.7164 39.0665 82.7397 39.3227 82.7397 39.5557V42.4909H82.5067V39.5789C82.5067 39.3693 82.4834 39.1363 82.4369 38.9267C82.3903 38.7403 82.3204 38.5772 82.2039 38.4375C82.0874 38.2977 81.9476 38.2045 81.7846 38.1346C81.5982 38.0647 81.4119 38.0182 81.2022 38.0415C80.8761 38.0415 80.5499 38.1346 80.2704 38.2977C79.9675 38.4841 79.7113 38.7403 79.5249 39.0199V42.4909H79.2687V35.7818H79.5249L79.5016 38.7869Z" fill="#8F8F8F"/>
<path d="M90.87 42.4909V38.2744L90.1478 38.2512C90.0779 38.2512 90.0546 38.2279 90.0546 38.1813V38.0881H90.87V37.4358C90.87 37.2029 90.8933 36.9699 90.9632 36.7602C91.0097 36.5739 91.1029 36.4108 91.2194 36.271C91.3359 36.1546 91.4757 36.0381 91.6387 35.9915C91.8018 35.9216 91.9881 35.8983 92.1745 35.8983C92.2677 35.8983 92.3609 35.8983 92.4541 35.9216C92.5472 35.9449 92.6171 35.9682 92.7103 35.9915L92.687 36.0847C92.687 36.108 92.6637 36.1313 92.6637 36.1313C92.6404 36.1313 92.5938 36.1313 92.5705 36.1313H92.4308C92.3609 36.1313 92.291 36.108 92.2211 36.108C92.0813 36.108 91.9183 36.1313 91.7785 36.1779C91.6387 36.2245 91.5222 36.2943 91.4291 36.4108C91.3126 36.5273 91.2427 36.6671 91.1961 36.8301C91.1262 37.0398 91.1029 37.2494 91.1029 37.4591V38.1114H92.6637V38.2977H91.1029V42.5142L90.87 42.4909Z" fill="#8F8F8F"/>
<path d="M97.1364 37.855C97.4393 37.855 97.7188 37.9016 97.9984 38.0181C98.2546 38.1346 98.4643 38.2977 98.6273 38.5073C98.8137 38.717 98.9302 38.9732 99.0234 39.2528C99.2097 39.8817 99.2097 40.5573 99.0234 41.1863C98.9535 41.4658 98.8137 41.6988 98.6273 41.9317C98.4643 42.1414 98.2313 42.3045 97.9984 42.3977C97.4393 42.6073 96.8336 42.6073 96.2745 42.3977C96.0183 42.3045 95.8086 42.1414 95.6455 41.9317C95.4592 41.7221 95.3427 41.4658 95.2495 41.1863C95.0632 40.5573 95.0632 39.8817 95.2495 39.2528C95.3194 38.9732 95.4592 38.717 95.6455 38.5073C95.8086 38.2977 96.0416 38.1346 96.2745 38.0181C96.5541 37.9016 96.8336 37.8318 97.1364 37.855ZM97.1364 42.3511C97.416 42.3511 97.6722 42.3045 97.9285 42.188C98.1381 42.0948 98.3478 41.9317 98.4876 41.7454C98.6506 41.5357 98.7671 41.3028 98.837 41.0698C98.9069 40.7903 98.9535 40.4874 98.9535 40.1846C98.9535 39.8817 98.9302 39.5789 98.837 39.2994C98.7671 39.0431 98.6506 38.8102 98.4876 38.6238C98.3478 38.4374 98.1381 38.2744 97.9285 38.1812C97.4393 37.9715 96.8802 37.9715 96.3677 38.1812C96.158 38.2744 95.9484 38.4374 95.8086 38.6238C95.6455 38.8335 95.5291 39.0664 95.4592 39.2994C95.3893 39.5789 95.3427 39.8817 95.3427 40.1846C95.3427 40.4874 95.366 40.767 95.4592 41.0698C95.5291 41.3261 95.6455 41.5357 95.8086 41.7454C95.9484 41.9317 96.158 42.0948 96.3677 42.188C96.6006 42.3045 96.8569 42.3744 97.1364 42.3511Z" fill="#8F8F8F"/>
<path d="M104.125 37.855C104.428 37.855 104.707 37.9016 104.987 38.0181C105.243 38.1346 105.453 38.2977 105.616 38.5073C105.802 38.717 105.942 38.9732 106.012 39.2528C106.198 39.8817 106.198 40.5573 106.012 41.1863C105.942 41.4658 105.802 41.6988 105.616 41.9317C105.453 42.1414 105.22 42.3045 104.987 42.3977C104.428 42.6073 103.822 42.6073 103.263 42.3977C103.007 42.2812 102.797 42.1414 102.634 41.9317C102.448 41.7221 102.331 41.4658 102.238 41.1863C102.052 40.5573 102.052 39.8817 102.238 39.2528C102.308 38.9732 102.448 38.717 102.634 38.5073C102.797 38.2977 103.03 38.1346 103.263 38.0181C103.542 37.9016 103.822 37.8318 104.125 37.855ZM104.125 42.3511C104.404 42.3511 104.661 42.3045 104.917 42.188C105.127 42.0948 105.336 41.9317 105.476 41.7454C105.639 41.5357 105.756 41.3028 105.802 41.0698C105.872 40.7903 105.919 40.4874 105.919 40.1846C105.919 39.8817 105.895 39.5789 105.802 39.2994C105.732 39.0431 105.616 38.8102 105.476 38.6238C105.336 38.4374 105.127 38.2744 104.917 38.1812C104.428 37.9715 103.845 37.9715 103.356 38.1812C103.146 38.2744 102.937 38.4374 102.797 38.6238C102.634 38.8335 102.517 39.0664 102.471 39.2994C102.401 39.5789 102.354 39.8817 102.354 40.1846C102.354 40.4874 102.378 40.767 102.471 41.0698C102.541 41.3261 102.657 41.5357 102.797 41.7454C102.937 41.9317 103.146 42.0948 103.356 42.188C103.589 42.3045 103.869 42.3744 104.125 42.3511Z" fill="#8F8F8F"/>
<path d="M112.814 35.7817V42.4908H112.698C112.651 42.4908 112.604 42.4675 112.604 42.4209V42.3976L112.581 41.5823C112.395 41.8618 112.139 42.0948 111.859 42.2811C111.579 42.4442 111.253 42.5374 110.927 42.5374C110.415 42.5607 109.926 42.351 109.576 41.955C109.273 41.559 109.11 40.9766 109.11 40.1845C109.11 39.8584 109.157 39.5556 109.227 39.2527C109.297 38.9732 109.436 38.7169 109.599 38.5073C109.762 38.2976 109.972 38.1113 110.228 37.9948C110.508 37.8783 110.787 37.8084 111.09 37.8084C111.393 37.8084 111.673 37.855 111.952 37.9948C112.208 38.1346 112.418 38.3209 112.581 38.5539V35.7584H112.814V35.7817ZM112.558 38.8567C112.395 38.6005 112.185 38.3908 111.929 38.2277C111.673 38.1113 111.416 38.0414 111.137 38.0414C110.857 38.0414 110.601 38.088 110.345 38.2044C110.135 38.3209 109.926 38.484 109.786 38.6703C109.623 38.88 109.529 39.113 109.46 39.3692C109.39 39.6488 109.343 39.9516 109.343 40.2311C109.343 40.9533 109.483 41.4891 109.762 41.8385C110.042 42.188 110.508 42.3976 110.951 42.3743C111.277 42.3743 111.579 42.2811 111.836 42.1181C112.115 41.9317 112.372 41.6755 112.558 41.3959V38.8567Z" fill="#8F8F8F"/>
<path d="M120.991 38.8102C121.201 38.5307 121.457 38.2977 121.76 38.1114C122.063 37.9483 122.389 37.8551 122.715 37.8551C122.948 37.8551 123.157 37.9017 123.39 37.9716C123.577 38.0415 123.74 38.1579 123.856 38.321C123.996 38.4841 124.089 38.6704 124.136 38.8568C124.206 39.0898 124.229 39.346 124.229 39.579V42.5142H123.996V39.579C123.996 39.3693 123.973 39.1364 123.926 38.9267C123.88 38.7403 123.81 38.5773 123.693 38.4375C123.577 38.2977 123.437 38.2045 123.274 38.1347C123.088 38.0648 122.901 38.0182 122.692 38.0415C122.365 38.0415 122.039 38.1346 121.76 38.2977C121.457 38.4841 121.201 38.7403 121.014 39.0199V42.4909H120.758V37.9017H120.874C120.944 37.9017 120.968 37.925 120.968 37.9949L120.991 38.8102Z" fill="#8F8F8F"/>
<path d="M131.101 37.925V42.4909H130.985C130.938 42.4909 130.891 42.4676 130.891 42.3977L130.868 41.6057C130.658 41.8852 130.402 42.1182 130.099 42.3045C129.796 42.4909 129.47 42.5608 129.121 42.5608C128.888 42.5608 128.678 42.5142 128.445 42.4443C128.259 42.3744 128.096 42.2579 127.979 42.1182C127.84 41.9551 127.746 41.7687 127.7 41.5824C127.63 41.3494 127.607 41.0932 127.607 40.8602V37.925H127.84V40.8602C127.84 41.0699 127.863 41.3028 127.91 41.5125C127.956 41.6755 128.026 41.8386 128.142 42.0017C128.259 42.1415 128.399 42.2346 128.562 42.3045C128.748 42.3744 128.935 42.421 129.144 42.3977C129.47 42.3977 129.796 42.3045 130.076 42.1415C130.379 41.9551 130.635 41.6988 130.845 41.4193V37.9483H131.101V37.925Z" fill="#8F8F8F"/>
<path d="M135.76 42.584C135.504 42.6073 135.271 42.5142 135.085 42.3511C134.898 42.1414 134.828 41.8619 134.852 41.6056V38.2977H134.13C134.06 38.2977 134.036 38.2744 134.036 38.2278V38.1346L134.852 38.1113L134.922 36.3409C134.922 36.3176 134.922 36.2943 134.945 36.2943C134.945 36.271 134.968 36.271 134.992 36.271H135.085V38.1113H136.599V38.2977H135.085V41.5823C135.085 41.6988 135.108 41.8386 135.131 41.9551C135.155 42.0483 135.225 42.1414 135.271 42.2113C135.341 42.2812 135.411 42.3278 135.504 42.3511C135.597 42.3744 135.69 42.3977 135.784 42.3977C135.9 42.3977 135.993 42.3744 136.11 42.3511C136.203 42.3278 136.273 42.2812 136.343 42.2346C136.389 42.188 136.459 42.1647 136.506 42.1181C136.529 42.0948 136.552 42.0715 136.599 42.0715C136.622 42.0715 136.646 42.0948 136.646 42.0948L136.715 42.188C136.669 42.2579 136.599 42.3045 136.529 42.3744C136.459 42.421 136.389 42.4676 136.296 42.5142C136.203 42.5608 136.133 42.584 136.04 42.6073C135.947 42.5608 135.853 42.584 135.76 42.584Z" fill="#8F8F8F"/>
<path d="M139.79 39.1596C139.837 38.9732 139.93 38.7868 140.023 38.6005C140.116 38.4374 140.209 38.3209 140.349 38.1812C140.466 38.0647 140.605 37.9948 140.769 37.9249C140.932 37.855 141.118 37.8317 141.304 37.8317C141.398 37.8317 141.491 37.8317 141.584 37.855C141.677 37.8783 141.747 37.9016 141.84 37.9482L141.817 38.088C141.817 38.1113 141.794 38.1346 141.747 38.1346C141.7 38.1346 141.654 38.1113 141.584 38.1113C141.491 38.088 141.374 38.0647 141.281 38.088C141.095 38.088 140.932 38.1113 140.769 38.1812C140.629 38.251 140.489 38.3442 140.373 38.4374C140.256 38.5772 140.14 38.717 140.07 38.88C139.977 39.0897 139.907 39.276 139.837 39.4857V42.4908H139.581V37.9016H139.697C139.767 37.9016 139.79 37.9249 139.79 37.9948V39.1596Z" fill="#8F8F8F"/>
<path d="M145.125 36.271C145.125 36.3176 145.125 36.3642 145.102 36.3875C145.078 36.4341 145.055 36.4574 145.032 36.4807C145.008 36.504 144.962 36.5273 144.938 36.5506C144.892 36.5739 144.869 36.5739 144.822 36.5739C144.729 36.5739 144.659 36.5506 144.589 36.4807C144.473 36.3642 144.473 36.1545 144.589 36.0381C144.659 35.9915 144.729 35.9449 144.822 35.9449C144.869 35.9449 144.915 35.9449 144.938 35.9682C144.985 35.9915 145.008 36.0148 145.032 36.0381C145.055 36.0614 145.078 36.108 145.102 36.1312C145.125 36.1778 145.125 36.2244 145.125 36.271ZM144.938 37.925V42.4909H144.706V37.925H144.938Z" fill="#8F8F8F"/>
<path d="M152.02 42.491H151.788V38.2745H148.969V41.5591C148.969 41.6756 148.992 41.8154 149.015 41.9319C149.039 42.025 149.109 42.1182 149.155 42.1881C149.225 42.258 149.295 42.3046 149.388 42.3279C149.481 42.3512 149.574 42.3745 149.668 42.3745C149.784 42.3745 149.877 42.3512 149.994 42.3279C150.087 42.3046 150.157 42.258 150.227 42.2114C150.273 42.1648 150.343 42.1415 150.39 42.0949C150.413 42.0716 150.436 42.0483 150.483 42.0483C150.506 42.0483 150.53 42.0716 150.53 42.0716L150.599 42.1648C150.553 42.2347 150.483 42.2813 150.413 42.3512C150.343 42.3978 150.273 42.4444 150.18 42.491C150.087 42.5375 150.017 42.5608 149.924 42.5841C149.831 42.6074 149.738 42.6074 149.644 42.6074C149.388 42.6307 149.155 42.5375 148.969 42.3745C148.782 42.1648 148.713 41.8853 148.736 41.629V38.3211H148.014C147.944 38.3211 147.92 38.2978 147.92 38.2512V38.158L148.736 38.1114L148.806 36.341C148.806 36.3177 148.829 36.2944 148.829 36.2944C148.852 36.2711 148.852 36.2711 148.876 36.2711H148.969V38.1114H152.02V42.491ZM152.23 36.2012C152.23 36.2478 152.23 36.2711 152.207 36.3177C152.184 36.3643 152.16 36.3876 152.137 36.4109C152.114 36.4342 152.067 36.4574 152.044 36.4807C151.974 36.504 151.881 36.504 151.811 36.4807C151.764 36.4574 151.741 36.4342 151.718 36.4109C151.694 36.3876 151.671 36.341 151.648 36.3177C151.624 36.2711 151.624 36.2478 151.624 36.2012C151.624 36.0381 151.764 35.8751 151.951 35.8751C151.997 35.8751 152.044 35.8751 152.067 35.8984C152.114 35.9217 152.137 35.9449 152.16 35.9682C152.184 35.9915 152.207 36.0381 152.23 36.0614C152.23 36.1313 152.23 36.1546 152.23 36.2012Z" fill="#8F8F8F"/>
<path d="M157.332 37.855C157.635 37.855 157.914 37.9016 158.194 38.0181C158.45 38.1346 158.66 38.2977 158.823 38.5073C159.009 38.717 159.126 38.9732 159.219 39.2528C159.405 39.8817 159.405 40.5573 159.219 41.1863C159.149 41.4658 159.009 41.6988 158.823 41.9317C158.636 42.1414 158.427 42.2812 158.194 42.3977C157.635 42.6073 157.029 42.6073 156.47 42.3977C156.214 42.3045 156.004 42.1414 155.841 41.9317C155.655 41.7221 155.515 41.4658 155.445 41.1863C155.259 40.5573 155.259 39.8817 155.445 39.2528C155.515 38.9732 155.655 38.717 155.841 38.5073C156.004 38.2977 156.237 38.1346 156.47 38.0181C156.749 37.9016 157.029 37.8318 157.332 37.855ZM157.332 42.3511C157.611 42.3511 157.868 42.3045 158.101 42.188C158.31 42.0948 158.52 41.9317 158.66 41.7454C158.823 41.5357 158.939 41.3028 158.986 41.0698C159.056 40.7903 159.102 40.4874 159.102 40.1846C159.102 39.8817 159.079 39.5789 158.986 39.2994C158.916 39.0431 158.799 38.8102 158.66 38.6238C158.52 38.4374 158.31 38.2744 158.101 38.1812C157.611 37.9715 157.052 37.9715 156.54 38.1812C156.33 38.2744 156.12 38.4374 155.981 38.6238C155.818 38.8335 155.701 39.0664 155.655 39.2994C155.585 39.5789 155.538 39.8817 155.538 40.1846C155.538 40.4874 155.561 40.767 155.655 41.0698C155.724 41.3261 155.841 41.5357 155.981 41.7454C156.12 41.9317 156.33 42.0715 156.54 42.188C156.796 42.3045 157.052 42.3744 157.332 42.3511Z" fill="#8F8F8F"/>
<path d="M162.806 38.8102C163.016 38.5307 163.272 38.2977 163.575 38.1114C163.878 37.9483 164.204 37.8551 164.553 37.8551C164.786 37.8551 164.996 37.9017 165.229 37.9716C165.415 38.0415 165.578 38.1579 165.695 38.321C165.835 38.4841 165.928 38.6704 165.974 38.8568C166.044 39.0898 166.067 39.346 166.067 39.579V42.5142H165.835V39.579C165.835 39.3693 165.811 39.1364 165.765 38.9267C165.718 38.7403 165.648 38.5773 165.532 38.4375C165.415 38.2977 165.275 38.2045 165.112 38.1347C164.926 38.0648 164.74 38.0182 164.53 38.0415C164.204 38.0415 163.878 38.1346 163.598 38.2977C163.295 38.4841 163.039 38.7403 162.853 39.0199V42.4909H162.62V37.9017H162.736C162.783 37.9017 162.829 37.925 162.829 37.9716V37.9949L162.806 38.8102Z" fill="#8F8F8F"/>
<path d="M28.0189 19.2187C27.0172 17.7977 27.3434 15.4914 27.3434 15.4914C27.3434 15.4914 29.0207 16.3534 30.5581 16.0272C32.0956 15.7011 34.4485 13.7443 34.4485 13.7443C34.4485 13.7443 31.9559 14.8392 29.9991 14.8858C28.0422 14.9324 26.6678 13.4647 26.6678 13.4647L27.3434 14.8159L25.9224 14.2801L26.4815 15.6778L25.9224 15.3517C26.3883 16.7494 27.1104 18.0539 28.0189 19.2187ZM18.0252 4.23976C18.0252 4.23976 16.1849 4.82215 14.7872 7.33805L11.6423 12.9988C11.6423 12.9988 14.4144 10.6926 17.0701 10.3432C19.7258 9.99373 22.661 11.7875 25.0604 12.067C27.4599 12.3466 26.9474 11.9272 28.2286 12.4863C28.2286 12.4863 29.9758 11.438 29.6962 11.2983C29.4167 11.1585 28.9275 11.1119 28.6945 10.9255C28.4616 10.7392 28.5082 9.5977 27.8792 9.5977C27.2502 9.5977 27.0638 6.98862 24.7576 5.98692C22.4513 4.98522 20.7275 4.51931 19.5394 2.37613C18.8639 1.14147 17.6525 0.256249 16.2781 0C16.2781 0 13.1565 2.42272 12.7605 5.31135C12.3644 8.19998 13.0866 9.66759 13.0866 9.66759C13.0866 9.66759 12.7605 6.01021 14.3213 3.89033C15.882 1.77045 16.5576 1.32784 16.5576 1.32784C16.5576 1.32784 18.2582 2.05 18.794 3.42442C19.3298 4.79885 21.4962 6.12669 23.057 6.49942C24.6178 6.87214 25.8292 7.89714 26.1786 8.80566C26.528 9.71418 26.8309 10.3432 27.2502 10.3665C27.6695 10.3897 27.9258 10.3665 27.9957 10.8324C28.0422 11.1585 28.2752 11.438 28.6013 11.5312C28.415 11.6943 28.2286 11.8341 28.0189 11.9505C28.0189 11.9505 27.8326 11.7875 26.7377 11.7176C25.6428 11.6477 24.6411 11.6011 23.4531 11.1818C23.1036 11.0653 22.5911 10.8557 21.9854 10.646C23.057 9.87725 24.2917 9.36475 25.5729 9.15509C24.082 9.15509 22.6144 9.5977 21.4031 10.4363C21.1701 10.3432 20.9139 10.2733 20.6576 10.1801C22.6377 8.0835 24.478 7.73407 24.478 7.73407C22.6377 7.73407 20.7974 9.41134 20.1917 10.017C19.4462 9.78407 18.6775 9.621 17.9087 9.52782C19.4928 7.6176 22.2417 7.01192 22.2417 7.01192C20.3315 7.24487 18.5843 8.13009 17.2332 9.50452H17.1866C16.0451 9.5977 14.9269 10.0403 14.0417 10.7625C14.0417 10.7858 15.1599 5.87044 18.0252 4.23976ZM48.9149 23.9477C47.5172 24.2039 46.3291 25.0658 45.6536 26.3238C44.4655 28.467 42.7649 28.9329 40.4354 29.9346C38.1059 30.9363 37.9195 33.5454 37.2905 33.5454C36.6615 33.5454 36.7314 34.6869 36.4752 34.8732C36.2189 35.0596 35.753 35.1062 35.4735 35.2459C35.1939 35.3857 36.9411 36.434 36.9411 36.434C38.2223 35.8749 37.7098 36.2942 40.1093 36.0147C42.5087 35.7351 45.4439 33.9414 48.0996 34.2908C50.7553 34.6403 53.5274 36.9465 53.5274 36.9465L50.3825 31.2857C48.9848 28.7698 47.1445 28.1874 47.1445 28.1874C50.0098 29.8181 51.1513 34.7334 51.1513 34.7334C50.2428 34.0113 49.1479 33.5687 48.0064 33.4755H47.9831C46.6553 32.1011 44.8848 31.2158 42.9979 30.9829C42.9979 30.9829 45.7234 31.5886 47.3308 33.4988C46.5621 33.592 45.7933 33.755 45.0479 33.988C44.4422 33.359 42.6019 31.6817 40.7615 31.6817C40.7615 31.6817 42.6019 32.0312 44.582 34.1278C44.3257 34.2209 44.0695 34.2908 43.8365 34.384C42.6019 33.5454 41.1576 33.1028 39.6666 33.1028C40.9479 33.3357 42.1825 33.8482 43.2541 34.5937C42.6485 34.8033 42.1127 35.013 41.7632 35.1295C40.5519 35.5488 39.5502 35.5954 38.4786 35.6653C37.407 35.7351 37.1973 35.8982 37.1973 35.8982C36.9877 35.7817 36.8013 35.642 36.6149 35.4789C36.9411 35.3857 37.174 35.1295 37.2206 34.8033C37.2672 34.3374 37.5468 34.3607 37.9661 34.3374C38.3854 34.3141 38.6882 33.6619 39.0377 32.7766C39.3871 31.8914 40.5985 30.8664 42.1593 30.4704C43.72 30.0744 45.9098 28.7698 46.4223 27.3954C46.9348 26.021 48.6587 25.3221 48.6587 25.3221C48.6587 25.3221 49.3342 25.7414 50.895 27.8846C52.4558 30.0278 52.1297 33.6619 52.1297 33.6619C52.1297 33.6619 52.8518 32.1942 52.4558 29.3056C52.0598 26.417 48.8916 23.9477 48.9149 23.9477ZM26.9474 12.8358C30.1854 14.3267 32.8178 13.9306 34.4485 11.7409C35.9161 9.69089 38.2223 8.40964 40.7382 8.24657C43.2308 8.03691 47.9831 8.71248 47.9831 8.71248C47.9831 8.71248 46.7484 8.99202 44.3257 9.45793C41.903 9.92384 39.9229 12.9755 39.5968 15.2119C39.2706 17.4483 38.9445 17.7045 37.5002 18.1238C36.0559 18.5431 33.2604 19.5914 32.1655 21.3852C31.0706 23.1789 31.8161 25.1124 31.8161 25.1124C31.257 23.971 30.1155 23.5051 27.553 21.9443C24.9905 20.3835 25.9224 16.3301 25.9224 16.3301C25.9224 16.3301 24.5712 19.9875 26.4815 22.3869C28.3917 24.7863 29.1837 23.8778 30.7445 26.0908C32.3053 28.3039 35.986 29.1891 37.8962 27.5585C39.8064 25.9278 43.7433 27.8613 43.7433 27.8613C43.7433 27.8613 40.2723 24.6698 38.1292 25.9511C35.986 27.2323 33.936 27.0227 33.0042 24.6698C32.0723 22.317 34.4252 20.4767 37.8962 19.6846C41.3672 18.8926 39.8763 17.192 41.5303 13.7909C43.1843 10.3897 45.5837 10.0869 47.8433 10.0636C50.103 10.0403 51.6871 7.75737 51.6871 7.75737C51.6871 7.75737 50.7553 7.96703 43.5803 7.05851C36.4053 6.14999 34.8678 9.52782 32.8644 11.8807C30.861 14.2335 26.9474 12.8358 26.9474 12.8358ZM37.8729 38.7635L38.5485 37.4124C38.5485 37.4124 37.174 38.88 35.2172 38.8334C33.2604 38.7868 30.7678 37.692 30.7678 37.692C30.7678 37.692 33.1206 39.6488 34.6581 39.9749C36.1956 40.301 37.8729 39.4391 37.8729 39.4391C37.8729 39.4391 38.199 41.7454 37.1973 43.1664C38.1059 42.0016 38.828 40.6971 39.2939 39.2993L38.7348 39.6255L39.2939 38.251L37.8729 38.7635ZM60.1899 41.792C59.2115 40.9533 54.2263 37.7385 54.2263 37.7385L55.1814 38.9033C55.1814 38.9033 53.5507 39.2528 51.9899 42.3044C50.9416 44.3311 51.7104 46.8936 51.7104 46.8936C51.7104 46.8936 49.8234 48.1749 47.9831 48.4078C46.1428 48.6408 45.1178 48.1283 43.1144 48.8039C43.1144 48.8039 44.3024 47.9186 45.5604 47.8255C46.8183 47.7323 49.4274 45.4959 51.0581 46.5908C51.0581 46.5908 50.3825 45.8686 49.5672 45.9385C48.7519 46.0084 46.4689 47.2897 45.6536 47.313C45.2808 47.3363 44.9081 47.4294 44.5587 47.5692C43.8831 47.2897 42.532 46.5675 42.1127 45.3328C41.5536 43.6556 43.0445 38.3675 46.2592 37.692C46.2592 37.692 42.4854 36.1312 39.2939 36.7601C39.2939 36.7601 40.8314 36.9465 41.2041 37.855C41.5769 38.7635 40.3189 39.3226 40.3189 41.0931C40.3189 42.1414 40.4587 43.1897 40.7382 44.2147C40.7382 44.2147 40.3888 41.9317 40.9479 40.4874C41.507 39.0431 44.2092 37.9016 44.2092 37.9016C44.2092 37.9016 41.9263 39.9982 41.3672 43.0499C40.8547 45.8221 42.3922 47.2198 43.8598 47.8255L43.8365 47.8488C43.1377 47.9186 42.4155 47.7323 41.8331 47.313C40.5985 46.451 40.2257 45.5192 38.9911 47.1033C37.4536 49.0601 37.3138 52.3215 35.0542 54.0686C33.5633 55.2334 33.0973 55.2334 33.0973 55.2334C33.0973 55.2334 36.3354 56.5845 38.9911 55.6993C41.4138 54.884 45.1644 49.8522 45.8399 48.9203C46.0263 48.9203 46.2127 48.9436 46.3757 48.9669C48.2859 49.2698 51.0348 48.2914 52.0831 47.4993C52.0831 47.4993 53.2013 48.5942 53.8535 48.6408C54.5058 48.6874 55.4143 48.1516 55.4143 48.1516C55.4143 48.1516 54.3427 48.5942 53.807 48.1982C53.2712 47.8022 52.0598 47.1266 52.5024 44.5175C52.945 41.9084 54.366 41.2794 54.366 41.2794C54.366 41.2794 52.3859 43.1897 52.8984 45.8453C52.8984 45.8453 53.0382 42.1414 56.3694 40.4408C56.3694 40.4408 59.6308 42.0715 60.2831 42.7937C60.9353 43.5158 60.9353 43.9584 60.2831 44.5408C59.6308 45.1232 58.9552 45.0533 58.7223 45.4726C58.5825 45.6823 58.4893 45.9152 58.4427 46.1482C58.4427 46.1482 59.4677 45.0766 60.2598 44.9834C60.2598 44.9834 58.9319 46.0084 58.4427 46.4976C57.9535 46.9868 54.0632 48.1749 55.0882 45.3794C55.0882 45.3794 53.9001 46.3113 53.9933 47.1266C54.0865 47.9419 55.9035 47.9419 57.0916 47.4294C58.2797 46.9169 60.1666 45.1931 60.5626 45.1698C60.9586 45.1465 61.3314 44.8436 61.2149 44.5641C61.0751 44.3078 61.0751 44.005 61.2382 43.7488C61.4245 43.4692 61.1683 42.6073 60.1899 41.792ZM38.7581 55.047C36.5218 55.7459 35.0309 55.3033 35.0309 55.3033C35.0309 55.3033 38.4786 54.7675 39.9462 52.9504C39.9462 52.9504 37.2439 54.651 35.0309 54.7675C35.0309 54.7675 35.9627 54.4413 36.8013 53.23C37.6399 52.0186 37.9428 49.9686 39.5036 47.709C40.5752 46.1715 40.6451 48.0118 42.8581 48.3147C42.2058 48.6641 41.6002 49.0834 41.0644 49.5726C42.2291 49.2698 43.4172 49.0601 44.6053 48.9436C43.7899 50.1084 40.6916 54.4181 38.7581 55.047ZM58.1166 43.0732C58.1865 43.0732 58.2564 43.0965 58.303 43.1431C58.1632 42.8635 57.8604 42.7471 57.5808 42.8868C57.3013 43.0266 57.1848 43.3294 57.3246 43.609C57.4643 43.8885 57.7672 44.005 58.0467 43.8652C58.1632 43.8186 58.2564 43.7255 58.303 43.609C58.2564 43.6556 58.1865 43.6789 58.1166 43.6789C57.9535 43.6789 57.8138 43.5391 57.8138 43.376C57.8138 43.213 57.9535 43.0732 58.1166 43.0732ZM7.07639 19.7312C7.0065 19.7312 6.93661 19.7079 6.89002 19.6613C7.02979 19.9409 7.33263 20.0573 7.61218 19.9176C7.89172 19.7778 8.0082 19.475 7.86843 19.1954C7.72866 18.9159 7.42582 18.7994 7.14627 18.9392C7.02979 18.9858 6.93661 19.0789 6.89002 19.1954C6.93661 19.1488 7.0065 19.1255 7.07639 19.1255C7.23945 19.1255 7.37923 19.2653 7.37923 19.4284C7.40252 19.6147 7.26275 19.7312 7.07639 19.7312C7.09968 19.7545 7.09968 19.7545 7.07639 19.7312ZM34.4485 50.0152C36.0093 47.8022 36.8013 48.7107 38.7115 46.3113C40.6218 43.9118 39.2706 40.2777 39.2706 40.2777C39.2706 40.2777 40.2024 44.3311 37.6399 45.8919C35.0775 47.4527 33.936 47.9186 33.3769 49.0601C33.3769 49.0601 34.1223 47.1499 33.0275 45.3328C31.9326 43.5158 29.1604 42.4908 27.6928 42.0715C26.2252 41.6522 25.9224 41.3959 25.5962 39.1596C25.2701 36.9232 23.29 33.8715 20.8673 33.4056C18.4445 32.9397 17.2099 32.6369 17.2099 32.6369C17.2099 32.6369 21.9621 31.9613 24.4548 32.1709C26.9707 32.334 29.2769 33.6153 30.7445 35.642C32.3752 37.855 35.0076 38.2278 38.2456 36.7368C38.2456 36.7368 34.3087 38.1113 32.3053 35.7817C31.2803 34.5704 30.3718 33.0795 28.7411 32.0312C29.9059 31.9613 31.0473 31.705 32.1422 31.2857C32.1422 31.2857 31.6996 31.2624 30.1854 30.121C27.9258 28.3738 27.7627 25.1124 26.2485 23.1556C25.0138 21.5715 24.6411 22.5034 23.4065 23.3653C22.8241 23.7846 22.1252 23.971 21.4031 23.9011H21.3798C22.8241 23.3187 24.3849 21.921 23.8724 19.1255C23.3133 16.0505 21.0303 13.9539 21.0303 13.9539C21.0303 13.9539 23.7093 15.0954 24.2917 16.563C24.8741 18.0306 24.5013 20.2903 24.5013 20.2903C24.7576 19.2653 24.8974 18.217 24.8974 17.1687C24.8974 15.3983 23.6161 14.8625 24.0121 13.9306C24.4082 12.9988 25.9224 12.8358 25.9224 12.8358C22.7309 12.1835 18.957 13.7676 18.957 13.7676C22.1951 14.4431 23.686 19.7312 23.1036 21.4085C22.6843 22.6431 21.3332 23.3653 20.6576 23.6448C20.3082 23.5284 19.9354 23.4352 19.5627 23.4119C18.7474 23.3886 16.4644 22.1306 15.6491 22.0374C14.8338 21.9443 14.1582 22.6664 14.1582 22.6664C15.7889 21.5715 18.3979 23.8079 19.6559 23.9011C20.9139 23.9943 22.1019 24.8795 22.1019 24.8795C20.1218 24.1806 19.0735 24.7164 17.2565 24.4835C15.4394 24.2505 13.5292 22.9693 13.5292 22.9693C13.5292 22.9693 14.298 20.4068 13.2497 18.3801C11.6889 15.3517 10.0582 14.9789 10.0582 14.9789L11.0133 13.8142C11.0133 13.8142 6.02809 17.0056 5.04969 17.8443C4.07128 18.6829 3.81503 19.5448 3.9781 19.871C4.14117 20.1039 4.14117 20.4301 4.00139 20.6863C3.88492 20.9659 4.23435 21.2687 4.65366 21.292C5.07298 21.3153 6.95991 23.0392 8.14797 23.5516C9.33604 24.0641 11.1531 24.0641 11.2463 23.2488C11.3394 22.4335 10.1281 21.4551 10.1281 21.4551C11.1298 24.2505 7.26275 23.0857 6.77355 22.5732C6.28434 22.0607 4.9565 21.059 4.9565 21.059C5.77184 21.1522 6.77355 22.2238 6.77355 22.2238C6.72695 21.9676 6.63377 21.7346 6.494 21.525C6.26105 21.1289 5.56218 21.1988 4.93321 20.5931C4.30423 19.9875 4.28094 19.5448 4.93321 18.846C5.58548 18.1471 8.84684 16.5164 8.84684 16.5164C12.1548 18.217 12.2946 21.921 12.2946 21.921C12.8071 19.2653 10.8269 17.3551 10.8269 17.3551C10.8269 17.3551 12.248 18.0073 12.6906 20.5931C13.1332 23.1789 11.9218 23.8545 11.386 24.2738C10.8502 24.6931 9.77865 24.2272 9.77865 24.2272C9.77865 24.2272 10.6872 24.763 11.3627 24.7164C12.0383 24.6698 13.1332 23.5749 13.1332 23.5749C14.1815 24.3903 16.9303 25.3454 18.8406 25.0426C19.0036 25.0193 19.19 24.996 19.3764 24.996C19.9121 25.7414 22.4281 29.1193 24.6644 30.8431C23.6394 30.7965 22.6144 30.8431 21.5894 30.9829C14.4144 31.9147 13.4826 31.6817 13.4826 31.6817C13.4826 31.6817 15.0434 33.9647 17.3264 33.988C19.6093 34.0113 22.0087 34.3141 23.6394 37.7153C25.2701 41.1164 23.7792 42.8402 27.2735 43.609C30.7678 44.3777 33.0973 46.2414 32.1655 48.5942C31.2337 50.947 29.1837 51.1567 27.0405 49.8755C24.8974 48.5942 21.4263 51.7857 21.4263 51.7857C21.4263 51.7857 25.3633 49.8522 27.2735 51.4828C29.1837 53.1135 32.8877 52.2283 34.4485 50.0152ZM20.611 25.0193C21.7991 25.1357 22.9871 25.3454 24.1519 25.6482C23.5928 25.159 22.9871 24.7397 22.3582 24.3903C24.5945 24.0874 24.6411 22.2238 25.7127 23.7846C27.2735 26.021 27.553 28.0943 28.415 29.3056C29.2769 30.517 30.1854 30.8431 30.1854 30.8431C27.9724 30.7266 25.2934 29.0261 25.2934 29.0261C26.761 30.8431 30.1854 31.3789 30.1854 31.3789C30.1854 31.3789 28.9042 31.7749 26.9241 31.2624C26.8076 31.2391 26.6911 31.1925 26.5746 31.1692L26.4582 31.1227C24.5246 30.4704 21.4031 26.1607 20.611 25.0193Z" fill="#8F8F8F"/>
</svg>
