<svg width="170" height="56" viewBox="0 0 170 56" fill="none" xmlns="http://www.w3.org/2000/svg">
<path d="M69.9762 34.3369C68.6247 33.5746 67.5082 32.4408 66.7834 31.0726C65.9999 29.6065 65.6082 27.9646 65.6473 26.3031C65.6082 24.6221 66.0195 22.941 66.8422 21.4554C67.5865 20.0872 68.7226 18.9534 70.0742 18.1911C71.4649 17.4092 73.0319 17.0183 74.6381 17.0378C75.833 17.0183 77.0278 17.1746 78.1639 17.5265C79.1825 17.8588 80.1619 18.3279 81.0629 18.8948C81.2196 18.973 81.3371 19.1098 81.4351 19.2466C81.533 19.4226 81.5918 19.618 81.5918 19.8135C81.6113 20.3804 81.1412 20.8495 80.5732 20.869C80.5536 20.869 80.534 20.869 80.4948 20.869C80.299 20.869 80.1227 20.8299 79.9464 20.7322C79.1825 20.2631 78.3598 19.9112 77.5175 19.6376C76.6556 19.3835 75.7742 19.2662 74.8927 19.2857C73.6587 19.2662 72.4443 19.5594 71.367 20.1067C70.3288 20.654 69.4669 21.4945 68.8989 22.511C68.3113 23.5665 68.0174 24.8175 68.0174 26.2835C67.9979 27.5346 68.2917 28.766 68.8597 29.8802C69.4082 30.9357 70.2504 31.7958 71.2886 32.3822C72.3463 32.9882 73.6 33.3009 75.0494 33.3009C76.6165 33.3009 78.1639 32.9295 79.5546 32.1672V27.4955H75.3041C74.7165 27.4759 74.2659 26.9677 74.2855 26.4008C74.3051 25.8535 74.7556 25.4039 75.3041 25.3844H80.3969C81.0825 25.3844 81.6309 25.9317 81.6309 26.6158C81.6309 26.6158 81.6309 26.6158 81.6309 26.6354V32.4799C81.6309 32.8122 81.533 33.1641 81.3567 33.4377C81.1804 33.7114 80.9454 33.9264 80.6515 34.0632C78.8299 35.0015 76.7928 35.4902 74.736 35.5097C73.0515 35.5293 71.4257 35.1383 69.9762 34.3369Z" fill="#8F8F8F"/>
<path d="M86.1361 35.0405C85.9206 34.8255 85.8031 34.5323 85.8031 34.2195V23.1755C85.8031 22.8627 85.9206 22.5695 86.1361 22.335C86.3516 22.1004 86.6454 21.9831 86.9588 21.9831C87.6052 21.9831 88.134 22.5109 88.1536 23.1755V24.2897C89.3485 22.6868 90.7 21.8658 92.1887 21.8658H92.3258C92.6392 21.8658 92.933 21.9831 93.1289 22.1981C93.3444 22.4132 93.4619 22.7064 93.4423 23.0191C93.4619 23.3123 93.3248 23.6055 93.1093 23.8205C92.8743 24.0356 92.5609 24.1333 92.2475 24.1333H92.1104C91.3073 24.1333 90.5237 24.3288 89.8382 24.7393C89.133 25.1497 88.5454 25.7166 88.1145 26.4007V34.2391C88.1145 34.5518 87.9969 34.845 87.7619 35.0601C87.5464 35.2751 87.233 35.3924 86.9196 35.3924C86.6454 35.3728 86.3516 35.2555 86.1361 35.0405Z" fill="#8F8F8F"/>
<path d="M97.6145 34.6497C96.6155 34.0828 95.8124 33.2618 95.3032 32.2454C94.7547 31.1312 94.4609 29.9193 94.5001 28.6683C94.4805 27.4368 94.7547 26.2054 95.3032 25.0912C95.8124 24.0747 96.6155 23.2342 97.6145 22.6869C99.7888 21.5532 102.374 21.5532 104.549 22.6869C105.548 23.2538 106.351 24.0747 106.88 25.0912C107.448 26.1858 107.722 27.4173 107.702 28.6683C107.722 29.8997 107.448 31.1312 106.88 32.2454C106.351 33.2618 105.548 34.1023 104.549 34.6497C102.374 35.7834 99.7888 35.7834 97.6145 34.6497ZM103.119 32.8709C103.785 32.519 104.353 31.9913 104.725 31.3267C105.136 30.623 105.352 29.7238 105.352 28.6487C105.352 27.5736 105.136 26.6745 104.725 25.9903C104.353 25.3257 103.804 24.798 103.119 24.4657C102.492 24.1529 101.787 23.9966 101.101 23.9966C100.396 23.9966 99.6908 24.1529 99.0444 24.4657C98.3784 24.798 97.83 25.3453 97.4578 25.9903C97.0465 26.694 96.831 27.5736 96.831 28.6487C96.831 29.7043 97.0465 30.6034 97.4578 31.3267C97.83 31.9913 98.3784 32.519 99.0444 32.8709C99.6712 33.2032 100.376 33.3596 101.101 33.3596C101.806 33.3596 102.492 33.2032 103.119 32.8709Z" fill="#8F8F8F"/>
<path d="M113.794 35.0602C113.52 34.8647 113.324 34.5911 113.226 34.2783L109.563 23.5666C109.524 23.4298 109.485 23.2734 109.485 23.1365C109.485 22.511 109.994 21.9833 110.621 21.9833H110.64C110.875 21.9833 111.11 22.0419 111.287 22.1787C111.463 22.296 111.6 22.472 111.679 22.687L114.695 32.5973L117.692 22.9215C117.907 22.2178 118.652 21.8269 119.357 22.0615C119.768 22.1983 120.101 22.511 120.219 22.9215L123.216 32.5973L126.271 22.687C126.35 22.472 126.487 22.296 126.663 22.1787C126.859 22.0419 127.094 21.9833 127.329 21.9833C127.956 21.9833 128.485 22.4915 128.485 23.117V23.1365C128.485 23.2929 128.465 23.4298 128.406 23.5666L124.744 34.2979C124.646 34.6106 124.45 34.8843 124.175 35.0798C123.627 35.4902 122.863 35.4902 122.315 35.0798C122.04 34.8843 121.845 34.5911 121.727 34.2783L118.985 25.7558L116.242 34.2783C116.125 34.5911 115.929 34.8647 115.655 35.0798C115.106 35.4902 114.342 35.4902 113.794 35.0602Z" fill="#8F8F8F"/>
<path d="M132.559 32.1086V24.1334H130.737C130.6 24.1334 130.483 24.0943 130.385 23.9966C130.287 23.8988 130.248 23.7815 130.248 23.6447C130.248 23.4688 130.346 23.3124 130.483 23.2147L133.989 19.794C134.107 19.6571 134.263 19.5789 134.42 19.5594C134.557 19.5594 134.675 19.618 134.773 19.7158C134.87 19.8135 134.91 19.9503 134.91 20.0676V22.12H137.828C138.396 22.12 138.847 22.5696 138.827 23.1365C138.827 23.3906 138.729 23.6447 138.553 23.8402C138.357 24.0356 138.102 24.1529 137.828 24.1334H134.91V31.9131C134.91 32.5777 135.066 33.0077 135.38 33.1836C135.752 33.3791 136.163 33.4768 136.575 33.4573C136.927 33.4573 137.28 33.3987 137.613 33.3009L137.828 33.2423C137.926 33.2227 138.024 33.2227 138.122 33.2227C138.357 33.2227 138.592 33.3205 138.768 33.4964C138.945 33.6723 139.062 33.9069 139.043 34.161C139.043 34.5519 138.808 34.9038 138.455 35.0601C137.789 35.3729 137.045 35.5293 136.32 35.5293C133.813 35.5097 132.559 34.376 132.559 32.1086Z" fill="#8F8F8F"/>
<path d="M141.824 19.0511C141.569 18.8166 141.432 18.4647 141.432 18.1324V18.0347C141.432 17.3114 142.02 16.725 142.745 16.725H142.901C143.626 16.725 144.214 17.3114 144.214 18.0347V18.1324C144.214 18.8557 143.626 19.4421 142.901 19.4616H142.745C142.392 19.4421 142.059 19.3052 141.824 19.0511ZM141.981 35.0406C141.765 34.8255 141.648 34.5323 141.648 34.2196V23.1755C141.648 22.8628 141.765 22.5696 141.981 22.335C142.196 22.1005 142.49 21.9832 142.803 21.9832C143.43 21.9636 143.979 22.4523 143.998 23.0974C143.998 23.1169 143.998 23.1364 143.998 23.1755V34.2196C143.998 34.5323 143.881 34.8255 143.646 35.0406C143.43 35.2556 143.117 35.3729 142.803 35.3729C142.49 35.3924 142.196 35.2556 141.981 35.0406Z" fill="#8F8F8F"/>
<path d="M149.385 35.0406C149.169 34.8256 149.052 34.5324 149.052 34.2196V24.1334H147.524C146.976 24.1334 146.525 23.6838 146.525 23.1365C146.525 22.8628 146.623 22.6087 146.819 22.4132C147.015 22.2373 147.269 22.12 147.524 22.1396H149.052V20.6149C149.052 19.5789 149.228 18.7384 149.6 18.0738C149.933 17.4678 150.423 16.9596 151.05 16.6273C151.637 16.3341 152.264 16.1777 152.911 16.1777C153.694 16.1777 154.458 16.3537 155.163 16.7055C155.34 16.7837 155.477 16.9205 155.594 17.0769C155.712 17.2333 155.77 17.4092 155.77 17.6047C155.77 17.8588 155.672 18.1129 155.477 18.2888C155.3 18.4843 155.065 18.582 154.811 18.582C154.615 18.582 154.419 18.5625 154.223 18.5038C153.812 18.4452 153.577 18.4256 153.518 18.4256C152.813 18.4256 152.284 18.582 151.931 18.9143C151.579 19.2466 151.402 19.833 151.402 20.6931V22.1005H154.634C155.202 22.1005 155.653 22.5501 155.633 23.1169C155.633 23.371 155.535 23.6251 155.359 23.8206C155.163 24.0161 154.909 24.1334 154.634 24.1138H151.402V34.2196C151.402 34.5324 151.285 34.8256 151.05 35.0406C150.834 35.2556 150.521 35.3729 150.208 35.3729C149.894 35.3924 149.6 35.2556 149.385 35.0406Z" fill="#8F8F8F"/>
<path d="M160.08 40.9634C159.864 40.7484 159.766 40.4552 159.766 40.162C159.766 40.0251 159.786 39.8883 159.845 39.7515L161.529 35.4511L156.672 23.6643C156.613 23.5079 156.574 23.3516 156.574 23.1756C156.574 22.8629 156.691 22.5697 156.907 22.3351C157.122 22.1201 157.416 21.9833 157.729 21.9833C157.964 21.9833 158.199 22.0615 158.395 22.1983C158.591 22.3156 158.728 22.511 158.826 22.7065L162.803 32.5386L166.857 22.7652C167.073 22.2374 167.445 21.9833 167.935 21.9833C168.248 21.9833 168.542 22.1006 168.757 22.3351C168.973 22.5501 169.09 22.8629 169.09 23.1756C169.09 23.332 169.071 23.4688 169.012 23.6057L161.96 40.4943C161.725 41.022 161.353 41.2957 160.883 41.2957C160.57 41.2957 160.276 41.1784 160.08 40.9634Z" fill="#8F8F8F"/>
<path d="M24.9635 4C11.683 4 0.90979 14.7508 0.90979 28.0037C0.90979 34.0437 3.18197 39.8492 7.29539 44.2863L12.3882 39.2041L13.7398 40.5529L15.5418 38.7545H30.7223C28.6852 39.9274 26.3543 40.5529 24.0037 40.5529H13.7202L8.62736 45.6351C18.3821 54.6267 33.6017 54.0207 42.6121 44.2668C51.6225 34.5128 51.0152 19.3444 41.241 10.3528C36.8141 6.26745 30.9966 4 24.9635 4ZM12.3882 39.2041V28.981C12.4078 21.5141 18.4604 15.4741 25.9429 15.4545H36.1873L12.3882 39.2041ZM33.1512 36.9562H17.3243L19.1264 35.1579H34.7966C34.3069 35.8225 33.7584 36.4089 33.1512 36.9562ZM35.9327 33.3791H20.9089L22.711 31.5808H36.7358C36.5203 32.2063 36.2461 32.7927 35.9327 33.3791ZM37.2451 29.7825H24.513L26.4718 27.8278H37.4997C37.4605 28.4924 37.3822 29.1374 37.2451 29.7825ZM37.5389 26.0099H28.2935L30.1151 24.192H37.5389V26.0099ZM37.5389 22.3546H31.9564L33.5038 20.8104H37.5389V22.3546ZM37.5389 19.0316H35.2863L37.5389 16.7837V19.0316Z" fill="#8F8F8F"/>
</svg>
