<svg width="40" height="40" viewBox="0 0 40 40" fill="none" xmlns="http://www.w3.org/2000/svg">
<g clip-path="url(#clip0_1_189)">
<path d="M15.5473 39.9987C15.4645 39.9609 15.3854 39.9183 15.3001 39.8867C14.9153 39.7461 14.5827 39.4941 14.346 39.164C14.1092 38.8338 13.9795 38.4409 13.9737 38.0369C13.9737 37.8312 13.9638 37.6243 13.9737 37.4199C13.9873 37.1765 13.8995 37.1022 13.6486 37.1034C11.4853 37.1132 9.32199 37.1034 7.1587 37.1034C5.53808 37.1034 3.91869 37.1095 2.29931 37.1034C1.14843 37.0961 0.265807 36.4012 0.0395875 35.3412C0.00720099 35.1589 -0.00605167 34.9737 3.28885e-05 34.7887C3.28885e-05 25.1283 3.28885e-05 15.4678 3.28885e-05 5.80735C3.28885e-05 4.39808 0.941993 3.4756 2.38213 3.47073C4.01305 3.46586 5.64356 3.46586 7.27366 3.47073C7.36459 3.48013 7.45632 3.46299 7.53743 3.42144C7.61854 3.37989 7.68544 3.31577 7.72981 3.23707C7.86081 3.03049 8.04522 2.8619 8.26417 2.74856C8.48312 2.63522 8.72874 2.58121 8.97586 2.59206C9.50742 2.59206 10.039 2.59206 10.5606 2.59206C11.0971 0.861507 12.1813 -0.0110733 13.7598 -0.00620533C15.2655 -0.00620533 16.3632 0.90045 16.8787 2.59206C17.3509 2.59206 17.8392 2.60423 18.325 2.59206C18.6135 2.56928 18.9027 2.62541 19.1607 2.75427C19.4188 2.88313 19.6357 3.07969 19.7874 3.32226C19.8357 3.37021 19.8936 3.40775 19.9575 3.43247C20.0213 3.45719 20.0897 3.46857 20.1583 3.46586C21.8098 3.4756 23.4613 3.46586 25.1116 3.47438C26.307 3.48047 27.2044 4.19484 27.4183 5.29987C27.4488 5.49264 27.4608 5.68781 27.4541 5.8828C27.4541 9.92726 27.4541 13.9705 27.4541 18.0125V18.4214H27.825C29.3084 18.4214 30.7918 18.4129 32.2752 18.4287C32.5842 18.4287 32.6844 18.3642 32.6807 18.0393C32.6658 16.9854 33.2271 16.1992 34.1307 15.9363C34.432 15.8462 34.7502 15.8253 35.061 15.8753C35.3717 15.9252 35.6667 16.0446 35.9233 16.2243C36.1798 16.404 36.3911 16.6392 36.5409 16.9119C36.6907 17.1845 36.7749 17.4874 36.7872 17.7971C36.7971 17.9894 36.7872 18.1829 36.7872 18.4214H37.1877C37.8145 18.43 38.4425 18.4105 39.0667 18.4555C39.3205 18.477 39.5567 18.5919 39.7281 18.7774C39.8995 18.9628 39.9936 19.2051 39.9914 19.4559C40.0025 20.8347 40.0099 22.2136 39.9827 23.5936C39.9827 23.8273 39.7973 24.0561 39.6996 24.2873C39.6329 24.448 39.5142 24.6098 39.5142 24.7741C39.5027 29.105 39.4998 33.4366 39.5056 37.7691C39.5056 38.9484 39.0927 39.5374 37.9715 39.9597C37.9554 39.9658 37.9455 39.9889 37.9332 40.0047L15.5473 39.9987ZM14.682 23.4476H25.1709C25.2859 23.4427 25.4011 23.4452 25.5158 23.4549C25.6569 23.4744 25.7861 23.5432 25.88 23.6486C25.974 23.754 26.0263 23.8891 26.0276 24.0293C26.0267 24.1695 25.9753 24.3049 25.8824 24.4112C25.7896 24.5175 25.6614 24.5879 25.5208 24.6098C25.4168 24.619 25.3123 24.6214 25.208 24.6171H15.1728V37.7874C15.1728 38.5492 15.4608 38.8328 16.2297 38.8328H37.2644C38.0147 38.8328 38.3052 38.5456 38.3052 37.8032C38.3052 33.5243 38.3052 29.2449 38.3052 24.9652V24.6208H28.4159C28.312 24.6208 28.207 24.6269 28.1031 24.6208C27.9557 24.6092 27.8178 24.5446 27.7157 24.4394C27.6135 24.3341 27.5543 24.1955 27.5493 24.05C27.549 23.8993 27.6072 23.7541 27.712 23.6442C27.8167 23.5343 27.9602 23.4679 28.113 23.4586C28.2169 23.45 28.3219 23.4586 28.4258 23.4586H38.7861V19.625H36.833C36.5746 21.0185 35.9343 21.7097 34.8551 21.7694C34.3915 21.7984 33.9323 21.6666 33.5571 21.397C32.939 20.9674 32.672 20.3565 32.6634 19.6372H20.8283C20.6911 20.9126 19.979 21.6903 18.8949 21.7682C18.4206 21.804 17.9489 21.6719 17.5648 21.3958C16.9467 20.9662 16.6846 20.354 16.6698 19.636H14.6808L14.682 23.4476ZM13.9403 32.8452C13.9531 32.7911 13.9622 32.7362 13.9675 32.6809C13.9675 29.9962 13.9675 27.3111 13.9675 24.6257C13.9589 24.5174 13.9116 24.4156 13.834 24.3384C13.7157 24.2223 13.623 24.0833 13.5617 23.9302C13.5004 23.7771 13.4719 23.6132 13.478 23.4488C13.4854 22.1722 13.478 20.8931 13.478 19.6214C13.478 18.8596 13.9008 18.4336 14.6721 18.4166C15.2259 18.4056 15.7847 18.4166 16.3336 18.4166C16.4436 18.4166 16.5536 18.4056 16.6896 18.3971C16.6896 18.1683 16.6809 17.9736 16.6896 17.7801C16.7136 17.2925 16.9148 16.8297 17.2566 16.4761C17.5983 16.1224 18.0578 15.9015 18.5512 15.8536C19.0556 15.8043 19.5604 15.9426 19.9665 16.2412C20.3725 16.5398 20.6504 16.9772 20.7454 17.4673C20.7949 17.7107 20.7763 17.9541 20.8122 18.1975C20.8233 18.2742 20.9099 18.3995 20.963 18.4008C21.6701 18.4154 22.3784 18.4105 23.1263 18.4105V18.0454C23.1263 14.7636 23.1263 11.4818 23.1263 8.19995C23.1263 7.79226 23.1263 7.79104 22.711 7.79104C16.7122 7.79104 10.7135 7.78902 4.71478 7.78496C4.4008 7.78496 4.30808 7.86771 4.30932 8.18291C4.32086 11.7122 4.32292 15.2414 4.3155 18.7707C4.3155 19.2076 4.07445 19.4839 3.70978 19.4802C3.34511 19.4766 3.1226 19.2161 3.1226 18.7902C3.1226 15.1782 3.1226 11.5678 3.1226 7.95899C3.1226 7.06085 3.6591 6.55337 4.57757 6.54972C5.42311 6.54972 6.26989 6.54972 7.11666 6.54972C7.22545 6.54972 7.33547 6.53755 7.45908 6.53024C7.45908 5.98625 7.44301 5.48241 7.46526 4.9798C7.47639 4.70963 7.37255 4.65851 7.12285 4.65973C5.54549 4.66947 3.9669 4.65973 2.38955 4.66582C1.57615 4.66582 1.18552 5.06134 1.18552 5.86698C1.18552 15.4861 1.18552 25.1051 1.18552 34.7242C1.18552 35.5372 1.58604 35.929 2.42169 35.929H13.614C13.7252 35.929 13.8352 35.9181 13.9712 35.9108V34.4334C13.9712 34.0305 13.9712 34.0305 13.5682 34.0305C10.5891 34.0305 7.61072 34.0305 4.6332 34.0305C4.4249 34.0374 4.2167 34.0144 4.01511 33.9624C3.46007 33.7957 3.12507 33.3101 3.12507 32.6858C3.12507 29.0234 3.12507 25.3611 3.12507 21.6988C3.1232 21.637 3.12568 21.5752 3.13249 21.5138C3.14061 21.3847 3.19458 21.2625 3.28498 21.1686C3.37537 21.0747 3.49643 21.0151 3.62696 21.0002C3.76232 20.9745 3.90255 20.9991 4.02058 21.0693C4.13861 21.1394 4.22606 21.2501 4.26605 21.3799C4.30236 21.5185 4.31777 21.6617 4.3118 21.8047C4.3118 25.355 4.3118 28.9046 4.3118 32.4533C4.3118 32.8501 4.3118 32.8513 4.72838 32.8513H13.9341L13.9403 32.8452ZM18.7354 6.5485C18.7533 6.50083 18.7661 6.45149 18.7738 6.40124C18.7738 5.64103 18.7738 4.88001 18.7738 4.11817C18.7738 3.85408 18.6205 3.76281 18.3695 3.76403C17.7008 3.76403 17.032 3.76403 16.3632 3.76403C16.0974 3.76403 15.8811 3.67275 15.7773 3.43422C15.7201 3.26945 15.6884 3.09714 15.6833 2.92309C15.6552 2.61188 15.5509 2.312 15.3794 2.04913C15.2079 1.78626 14.9742 1.56822 14.6984 1.41367C14.4226 1.25912 14.1128 1.17267 13.7957 1.16171C13.4785 1.15075 13.1634 1.21561 12.8772 1.35074C12.1355 1.6988 11.7968 2.30607 11.7325 3.09347C11.693 3.59243 11.4952 3.76037 10.9908 3.76159H9.14646C8.74594 3.76159 8.66435 3.83826 8.66311 4.22527C8.66311 4.8727 8.67671 5.52136 8.6557 6.17245C8.64581 6.46087 8.72121 6.55458 9.02655 6.55337C12.1503 6.54241 15.2729 6.54728 18.3955 6.54728L18.7354 6.5485ZM24.318 18.4141C24.8928 18.4141 25.4231 18.4008 25.9534 18.4202C26.2118 18.4287 26.2637 18.3363 26.2637 18.1014C26.2571 14.009 26.2551 9.91672 26.2575 5.82439C26.2575 5.06864 25.8471 4.67068 25.0733 4.66338C24.4774 4.66338 23.8828 4.66338 23.287 4.66338C22.2845 4.66338 21.2819 4.66338 20.2794 4.66338C20.1805 4.66338 20 4.74735 19.9988 4.79603C19.979 5.3668 19.9864 5.93879 19.9864 6.54363H20.3659C21.2214 6.54363 22.078 6.54363 22.9347 6.54363C23.4675 6.54363 23.91 6.74686 24.1437 7.22392C24.2605 7.48607 24.3179 7.77014 24.3118 8.05634C24.3217 11.3666 24.318 14.678 24.318 17.9882V18.4141ZM19.6082 18.8462C19.6082 18.5383 19.6279 18.2279 19.602 17.9213C19.5736 17.5732 19.4512 17.2544 19.0939 17.0998C18.5117 16.8467 17.9109 17.2483 17.8874 17.9237C17.8652 18.5322 17.8713 19.1407 17.8874 19.7419C17.8872 19.8535 17.9096 19.9639 17.9531 20.067C17.9966 20.17 18.0605 20.2635 18.1409 20.3421C18.2214 20.4206 18.3169 20.4827 18.422 20.5246C18.527 20.5666 18.6394 20.5876 18.7527 20.5865C18.9799 20.5846 19.1971 20.4948 19.3577 20.3365C19.5182 20.1783 19.609 19.9643 19.6106 19.7407C19.6193 19.4449 19.6106 19.1516 19.6106 18.8486L19.6082 18.8462ZM35.5918 18.8303C35.5918 18.5322 35.6116 18.2328 35.5918 17.9359C35.5609 17.5769 35.4361 17.2483 35.0652 17.0937C34.4805 16.8503 33.8921 17.2641 33.8736 17.9456C33.8575 18.5407 33.8624 19.137 33.8736 19.7334C33.8711 19.8445 33.8911 19.9551 33.9324 20.0586C33.9737 20.1621 34.0355 20.2565 34.1141 20.3364C34.1928 20.4162 34.2868 20.4798 34.3906 20.5236C34.4945 20.5674 34.6061 20.5904 34.7191 20.5913C34.8345 20.5926 34.949 20.5712 35.0559 20.5283C35.1628 20.4854 35.2598 20.4219 35.3414 20.3414C35.4229 20.261 35.4873 20.1654 35.5308 20.0601C35.5742 19.9549 35.5958 19.8421 35.5943 19.7285C35.6005 19.4291 35.6005 19.1309 35.6005 18.8328L35.5918 18.8303Z" fill="white"/>
<path d="M18.6859 28.8962L20.2002 26.9588C20.283 26.8541 20.3683 26.7495 20.4573 26.6485C20.7219 26.3479 21.0297 26.2955 21.3103 26.4976C21.3792 26.5456 21.4373 26.607 21.4812 26.6781C21.525 26.7491 21.5536 26.8282 21.5652 26.9106C21.5768 26.9929 21.5711 27.0767 21.5485 27.1568C21.526 27.2369 21.4869 27.3115 21.4339 27.3762C20.6922 28.306 19.939 29.2252 19.1742 30.1339C19.1254 30.1923 19.0649 30.2401 18.9965 30.2743C18.9281 30.3085 18.8532 30.3284 18.7765 30.3328C18.6999 30.3371 18.6232 30.3258 18.5512 30.2996C18.4792 30.2733 18.4136 30.2326 18.3583 30.1802C17.9463 29.8443 17.5478 29.4974 17.163 29.1396C17.1054 29.0905 17.0585 29.0304 17.025 28.9631C16.9915 28.8957 16.972 28.8224 16.9678 28.7475C16.9635 28.6727 16.9745 28.5977 17.0002 28.5271C17.0259 28.4565 17.0657 28.3916 17.1172 28.3364C17.1681 28.2775 17.2305 28.2292 17.3006 28.1943C17.3708 28.1594 17.4473 28.1386 17.5257 28.1332C17.6041 28.1277 17.6828 28.1377 17.7572 28.1626C17.8316 28.1875 17.9002 28.2267 17.959 28.278C18.1927 28.4618 18.4177 28.6638 18.6859 28.8962Z" fill="white"/>
<path d="M34.1232 28.8877C34.5769 28.3267 35.012 27.7924 35.4434 27.2545C35.5967 27.0622 35.7327 26.8553 35.8921 26.6667C36.1653 26.3442 36.4818 26.2907 36.7649 26.5012C37.048 26.7117 37.0949 27.1182 36.8415 27.4358C36.3199 28.0906 35.7834 28.7331 35.253 29.383C35.0639 29.6155 34.8822 29.8516 34.6819 30.0767C34.4162 30.3809 34.0836 30.4162 33.7734 30.1595C33.391 29.8414 33.016 29.5149 32.6484 29.1798C32.3641 28.923 32.3419 28.5847 32.5706 28.3279C32.7992 28.0711 33.1516 28.0675 33.4359 28.3011C33.6621 28.4837 33.876 28.6759 34.1232 28.8877Z" fill="white"/>
<path d="M23.4218 35.4252L25.1116 33.366C25.1679 33.292 25.229 33.2217 25.2946 33.1555C25.3937 33.054 25.5278 32.9926 25.6705 32.9834C25.8132 32.9742 25.9542 33.0177 26.066 33.1056C26.1844 33.1927 26.2647 33.3209 26.2907 33.4642C26.3166 33.6075 26.2862 33.7551 26.2057 33.8772C26.1067 34.0221 25.9985 34.1607 25.8818 34.2922C25.2736 35.037 24.6666 35.7842 24.0535 36.5253C23.6938 36.961 23.3946 36.9817 22.9669 36.6117C22.6368 36.327 22.3043 36.0458 21.978 35.7598C21.6516 35.4739 21.6195 35.1392 21.8704 34.869C22.1214 34.5988 22.4477 34.6159 22.7629 34.8751C22.9916 35.0479 23.1931 35.2305 23.4218 35.4252Z" fill="white"/>
<path d="M24.3846 28.02C24.7394 28.02 25.0942 28.0139 25.4477 28.02C25.8272 28.0285 26.0868 28.2634 26.0955 28.5944C26.0966 28.6743 26.0814 28.7536 26.0507 28.8275C26.02 28.9015 25.9744 28.9686 25.9166 29.0247C25.8589 29.0809 25.7902 29.125 25.7147 29.1543C25.6392 29.1837 25.5585 29.1977 25.4774 29.1956C24.7579 29.2094 24.0381 29.2094 23.3178 29.1956C23.2364 29.1992 23.1552 29.1866 23.079 29.1585C23.0027 29.1305 22.933 29.0875 22.874 29.0323C22.815 28.9771 22.7679 28.9107 22.7357 28.8371C22.7034 28.7635 22.6865 28.6843 22.6861 28.6041C22.6861 28.2658 22.9568 28.0248 23.3536 28.0175C23.696 28.0151 24.0397 28.02 24.3846 28.02Z" fill="white"/>
<path d="M18.4239 35.7416C18.0803 35.7416 17.7354 35.7477 17.3917 35.7416C16.9961 35.7319 16.7291 35.4848 16.7328 35.1465C16.7365 34.8082 16.9937 34.5697 17.3719 34.5636C18.0798 34.553 18.789 34.553 19.4994 34.5636C19.8776 34.5636 20.1372 34.8179 20.1434 35.1429C20.1496 35.4678 19.8789 35.7319 19.4883 35.7416C19.1335 35.7489 18.7787 35.7416 18.4239 35.7416Z" fill="white"/>
<path d="M34.2172 35.7416C33.8624 35.7416 33.5077 35.7489 33.1541 35.7416C32.766 35.7319 32.5224 35.4982 32.5187 35.1623C32.515 34.8264 32.7524 34.5733 33.1368 34.566C33.8563 34.5522 34.5761 34.5522 35.2964 34.566C35.3775 34.5618 35.4587 34.5741 35.5347 34.6024C35.6108 34.6306 35.68 34.674 35.7381 34.73C35.7962 34.7859 35.8419 34.8531 35.8723 34.9273C35.9026 35.0015 35.917 35.0812 35.9145 35.1611C35.9145 35.497 35.6672 35.7234 35.2791 35.7441H34.2147L34.2172 35.7416Z" fill="white"/>
<path d="M29.1476 28.0203C29.4925 28.0203 29.8362 28.0203 30.181 28.0203C30.5853 28.0276 30.8412 28.2637 30.8412 28.6081C30.8412 28.9525 30.5865 29.1934 30.1798 29.1983C29.4925 29.2093 28.804 29.208 28.1154 29.1983C27.6889 29.1983 27.4318 28.9549 27.4405 28.5898C27.4491 28.2247 27.7025 28.0239 28.1154 28.0166C28.4603 28.0166 28.8015 28.0203 29.1476 28.0203Z" fill="white"/>
<path d="M29.1427 35.7416C28.7879 35.7416 28.4331 35.7489 28.0783 35.7416C27.6914 35.7319 27.4454 35.4982 27.4405 35.1636C27.4372 35.0833 27.4511 35.0032 27.4811 34.9286C27.5112 34.8539 27.5568 34.7862 27.615 34.73C27.6732 34.6737 27.7428 34.63 27.8192 34.6018C27.8956 34.5735 27.9771 34.5614 28.0585 34.566C28.778 34.5522 29.4975 34.5522 30.2169 34.566C30.6001 34.5721 30.8436 34.8228 30.835 35.1599C30.8263 35.497 30.5878 35.7307 30.2008 35.7416C29.8522 35.7489 29.4974 35.7416 29.1427 35.7416Z" fill="white"/>
<path d="M8.96201 23.0121C8.41933 23.0121 7.87541 23.0121 7.33273 23.0121C6.66891 23.0121 6.27457 22.664 6.26344 22.0227C6.24243 20.8714 6.2449 19.7189 6.26344 18.5664C6.26219 18.4443 6.28611 18.3232 6.33376 18.2104C6.38141 18.0977 6.45179 17.9956 6.54065 17.9104C6.62951 17.8252 6.73501 17.7586 6.85076 17.7147C6.9665 17.6708 7.0901 17.6504 7.21406 17.6549C8.36205 17.6427 9.51128 17.6427 10.6617 17.6549C10.7884 17.6497 10.9147 17.6701 11.033 17.7149C11.1513 17.7597 11.259 17.8278 11.3495 17.9152C11.44 18.0026 11.5113 18.1073 11.559 18.2228C11.6068 18.3384 11.63 18.4624 11.6272 18.5871C11.6445 19.7286 11.6482 20.8714 11.6272 22.0129C11.6148 22.664 11.2254 23.0048 10.5653 23.0121C10.0288 23.0157 9.49603 23.0121 8.96201 23.0121ZM7.46129 21.772C8.41933 21.772 9.34645 21.772 10.2736 21.7634C10.3267 21.7634 10.4244 21.6417 10.4244 21.5699C10.4355 20.7363 10.4244 19.9039 10.4343 19.0715C10.4343 18.8804 10.3651 18.8281 10.1784 18.8281C9.34398 18.8354 8.50833 18.8281 7.67268 18.8281C7.60128 18.8342 7.53056 18.8464 7.46129 18.8646V21.772Z" fill="white"/>
<path d="M6.25259 28.1868C6.25259 27.6526 6.25259 27.1183 6.25259 26.5841C6.26125 25.9086 6.64075 25.5362 7.32312 25.5338C8.40683 25.5289 9.49177 25.5289 10.578 25.5338C11.2269 25.5338 11.6238 25.9074 11.6299 26.5415C11.6423 27.6514 11.6423 28.7609 11.6299 29.8699C11.6238 30.493 11.2504 30.8825 10.62 30.8922C9.49342 30.9117 8.36686 30.9117 7.24029 30.8922C6.62221 30.8813 6.26495 30.4906 6.25136 29.8833C6.24394 29.3174 6.25259 28.7515 6.25259 28.1868ZM10.416 26.7265H7.47888V29.6825H10.416V26.7265Z" fill="white"/>
<path d="M6.25229 12.3558C6.25229 11.8313 6.25229 11.3079 6.25229 10.7834C6.25971 10.0727 6.64045 9.69787 7.35619 9.69543C8.40941 9.69543 9.46345 9.69543 10.5183 9.69543C11.2378 9.69543 11.6309 10.0715 11.6309 10.7737C11.6375 11.8528 11.6375 12.9318 11.6309 14.0109C11.6247 14.679 11.2328 15.0624 10.5566 15.066C9.48117 15.0717 8.40612 15.0717 7.33147 15.066C6.64787 15.066 6.26094 14.6875 6.25106 14.0182C6.24487 13.4657 6.25229 12.9107 6.25229 12.3558ZM7.47116 13.8697H10.4095V10.8942H7.47116V13.8697Z" fill="white"/>
<path d="M17.0578 11.7283H13.8314C13.7264 11.7283 13.6213 11.7283 13.5187 11.7186C13.3716 11.7045 13.2351 11.6375 13.1351 11.5303C13.0352 11.4232 12.979 11.2835 12.9772 11.1381C12.9797 10.9928 13.0359 10.8534 13.1354 10.7461C13.2349 10.6387 13.3707 10.5708 13.5174 10.5551C13.5996 10.5473 13.6822 10.5449 13.7647 10.5478H20.4066C20.4697 10.5478 20.5302 10.5478 20.5945 10.5478C20.953 10.5722 21.1916 10.8083 21.1916 11.1344C21.1936 11.2119 21.1796 11.289 21.1504 11.3609C21.1211 11.4329 21.0773 11.4982 21.0215 11.5529C20.9657 11.6076 20.8992 11.6505 20.826 11.679C20.7528 11.7074 20.6744 11.7209 20.5958 11.7186C20.0531 11.7332 19.5092 11.7247 18.9665 11.7259L17.0578 11.7283Z" fill="white"/>
<path d="M16.1481 14.2206C15.3013 14.2206 14.4557 14.2206 13.609 14.2206C13.4768 14.2289 13.3455 14.1934 13.2362 14.1197C13.1269 14.0461 13.0457 13.9385 13.0057 13.8142C12.9606 13.7086 12.9529 13.5912 12.9839 13.4808C13.0148 13.3704 13.0826 13.2735 13.1763 13.2057C13.3099 13.1096 13.4696 13.055 13.6349 13.0487C15.3178 13.0381 17.0002 13.0381 18.6822 13.0487C19.0852 13.0487 19.351 13.2921 19.3535 13.6341C19.3559 13.976 19.0728 14.2255 18.6563 14.2279C17.8206 14.2243 16.9837 14.2219 16.1481 14.2206Z" fill="white"/>
</g>
<defs>
<clipPath id="clip0_1_189">
<rect width="40" height="40" fill="white"/>
</clipPath>
</defs>
</svg>
