<svg width="74" height="74" viewBox="0 0 74 74" fill="none" xmlns="http://www.w3.org/2000/svg">
<rect x="1" y="1" width="72" height="72" rx="36" stroke="#114A43"/>
<g clip-path="url(#clip0_1_249)">
<path d="M24.2342 48.244H24.7178C29.6702 48.244 34.6226 48.247 39.575 48.2531C39.8208 48.2531 40.1322 48.3309 40.2912 48.4904C40.4502 48.6499 40.4804 48.9495 40.4594 49.179C40.328 50.5497 40.399 51.9023 40.9259 53.1887C41.3964 54.3403 42.1861 55.1923 43.4227 55.5463C44.1573 55.7535 44.9396 55.7249 45.6567 55.4646C46.9261 55.0276 47.9064 53.6893 47.9826 52.2926C47.9918 52.1176 47.9905 51.9412 47.9905 51.7661C47.9905 41.8239 47.9875 31.8818 47.9813 21.9396C47.9813 20.6324 48.2783 19.4756 49.1824 18.4914C49.1943 18.4797 49.1824 18.4512 49.1943 18.4045C49.0865 18.4045 48.9814 18.3889 48.8762 18.3889H26.4182C25.0515 18.3889 24.2421 19.1826 24.2355 20.5299C24.2355 21.583 24.2355 22.6347 24.2355 23.6864C24.2392 23.8166 24.23 23.9469 24.2079 24.0754C24.1779 24.2261 24.0962 24.3619 23.9765 24.46C23.8568 24.558 23.7064 24.6123 23.5508 24.6136C23.3936 24.6112 23.2422 24.5541 23.1234 24.4523C23.0046 24.3505 22.9261 24.2106 22.9017 24.0573C22.8784 23.8506 22.871 23.6425 22.8793 23.4348C22.8793 22.4259 22.8793 21.4183 22.8793 20.4093C22.8898 18.7676 24.0003 17.297 25.6915 17.0376C25.9 17.0089 26.1105 16.9963 26.321 17C35.0168 17 43.7118 17 52.4059 17C53.4914 17 54.4861 17.2737 55.3035 17.9765C56.3101 18.8402 56.954 19.9282 56.9882 21.2782C57.0224 22.6035 57.0013 23.9302 57 25.2555C57 25.7742 56.753 26.0206 56.2247 26.0219C54.0713 26.0219 51.9171 26.0219 49.7619 26.0219H49.3257V26.4473C49.3257 35.0062 49.3257 43.5651 49.3257 52.124C49.3257 53.793 48.595 55.1236 47.2652 56.1221C46.5071 56.6933 45.5776 56.9986 44.6238 56.9897C37.3524 56.9957 30.0811 56.9957 22.8097 56.9897C22.1006 56.9951 21.3975 56.8619 20.7409 56.5977C20.0844 56.3335 19.4873 55.9435 18.9843 55.4504C17.7254 54.2378 16.979 52.7647 17.0066 50.9764C17.0145 50.3837 17.0066 49.7924 17.0066 49.201C17.0066 48.4385 17.2037 48.2427 17.9646 48.2427C19.4745 48.2427 20.987 48.2336 22.4956 48.2427C22.8057 48.2427 22.8898 48.1558 22.882 47.8537C22.8636 46.7799 22.8688 45.7061 22.882 44.6324C22.882 44.2057 23.1658 43.9191 23.5456 43.9101C23.9254 43.901 24.2171 44.1967 24.2407 44.6389C24.2407 44.7258 24.2407 44.8139 24.2407 44.8982V48.231L24.2342 48.244ZM39.0757 49.6043H18.3601C18.3601 50.1788 18.3299 50.7365 18.3601 51.2902C18.4981 53.4027 19.983 54.9861 21.9805 55.5411C22.3797 55.6383 22.7903 55.682 23.2013 55.6708C28.9737 55.6786 34.747 55.6786 40.5212 55.6708C40.6263 55.6708 40.7314 55.6591 40.8996 55.6501C39.3674 53.8838 38.9653 51.831 39.0757 49.6043ZM49.3901 24.6681H55.6439C55.6439 23.523 55.6872 22.4038 55.6334 21.2899C55.5558 19.7337 54.2141 18.468 52.6609 18.3993C51.055 18.3267 49.5806 19.4277 49.415 20.9929C49.2862 22.1989 49.3874 23.4231 49.3874 24.6681H49.3901Z" fill="#114A43"/>
<path d="M33.9375 34.35C33.9375 38.8097 30.3697 42.7572 25.5141 42.7559C20.6585 42.7546 17.113 38.8434 17.0789 34.3902C17.0447 29.9369 20.6414 25.9207 25.5075 25.9155C30.3736 25.9103 33.969 29.9149 33.9375 34.35ZM32.5853 34.3344C32.6208 30.632 29.4958 27.2344 25.4891 27.2461C21.5284 27.259 18.3995 30.6177 18.4271 34.3785C18.4547 38.0912 21.4824 41.4448 25.5299 41.4266C29.4209 41.4072 32.5932 38.2274 32.5853 34.3344Z" fill="#114A43"/>
<path d="M38.4908 45.7931C36.2594 45.7931 34.0281 45.7931 31.7967 45.7931C31.1081 45.7931 30.7915 45.3003 31.1213 44.7219C31.2054 44.5741 31.417 44.4885 31.5825 44.399C31.6681 44.3755 31.7579 44.371 31.8454 44.386H45.1336C45.6185 44.386 45.7906 44.4872 45.9365 44.8658C45.9784 44.9589 45.9976 45.0603 45.9924 45.162C45.9872 45.2637 45.9578 45.3627 45.9067 45.4511C45.8555 45.5395 45.7839 45.6147 45.6978 45.6708C45.6116 45.7268 45.5134 45.762 45.4109 45.7736C45.2801 45.7893 45.1483 45.795 45.0166 45.7905L38.4908 45.7931Z" fill="#114A43"/>
<path d="M39.4895 42.4628C37.6357 42.4628 35.7811 42.4628 33.9256 42.4628C33.7817 42.4686 33.6375 42.4586 33.4959 42.433C33.3485 42.3998 33.2175 42.3169 33.1256 42.1984C33.0337 42.08 32.9866 41.9336 32.9926 41.7846C32.9898 41.6347 33.0412 41.4887 33.1375 41.3728C33.2338 41.2569 33.3687 41.1785 33.5182 41.1517C33.6605 41.1276 33.8049 41.1172 33.9492 41.1206H45.0429C45.1868 41.1173 45.3307 41.1277 45.4726 41.1517C45.6208 41.1816 45.754 41.261 45.8498 41.3765C45.9455 41.492 45.998 41.6366 45.9982 41.7859C46.0021 41.9354 45.9534 42.0817 45.8605 42.1998C45.7676 42.318 45.6361 42.4008 45.4884 42.4343C45.3467 42.4603 45.2026 42.4707 45.0587 42.4654C43.1996 42.4654 41.3433 42.4645 39.4895 42.4628Z" fill="#114A43"/>
<path d="M41.1637 27.862C42.5172 27.862 43.8721 27.862 45.2256 27.862C45.8551 27.862 46.1455 28.3263 45.9037 28.8917C45.7723 29.1874 45.5186 29.2691 45.2269 29.2717C44.6605 29.2781 44.0942 29.2717 43.5291 29.2717H37.1688C36.7023 29.2717 36.5118 29.1537 36.3804 28.8139C36.1938 28.2952 36.4724 27.8802 37.0374 27.8633C37.6025 27.8465 38.1255 27.8633 38.6682 27.8633L41.1637 27.862Z" fill="#114A43"/>
<path d="M41.1584 34.5239C42.512 34.5239 43.8651 34.5239 45.2177 34.5239C45.6474 34.5239 45.9365 34.7456 45.9878 35.0983C46.0013 35.1908 45.995 35.285 45.9692 35.3749C45.9434 35.4648 45.8988 35.5484 45.8382 35.6201C45.7776 35.6919 45.7024 35.7503 45.6175 35.7916C45.5325 35.8328 45.4398 35.856 45.3452 35.8596C45.1349 35.8751 44.9234 35.8596 44.7131 35.8596H37.1268C36.6484 35.8596 36.3554 35.6313 36.3252 35.2514C36.2923 34.8221 36.588 34.5213 37.0663 34.5187C38.4304 34.5213 39.7944 34.5239 41.1584 34.5239Z" fill="#114A43"/>
<path d="M41.1506 25.9389C39.797 25.9389 38.4439 25.9389 37.0913 25.9389C36.6445 25.9389 36.3554 25.7029 36.3265 25.3307C36.3073 25.1602 36.3573 24.9891 36.4657 24.8549C36.5741 24.7207 36.7319 24.6344 36.9047 24.6149C37.0146 24.6023 37.1252 24.5976 37.2358 24.6006H45.0534C45.6816 24.6006 45.997 24.8289 45.993 25.2763C45.9891 25.7237 45.6711 25.9402 45.0416 25.9402L41.1506 25.9389Z" fill="#114A43"/>
<path d="M41.1388 22.6035H37.274C37.1521 22.6064 37.0301 22.602 36.9087 22.5906C36.7465 22.5746 36.5964 22.4991 36.4881 22.379C36.3797 22.2589 36.3211 22.1029 36.3239 21.9422C36.3185 21.7818 36.3736 21.6251 36.4784 21.5025C36.5833 21.3798 36.7305 21.2999 36.8916 21.2782C36.991 21.2669 37.0912 21.2635 37.1912 21.2678H45.1205C45.2201 21.2635 45.3198 21.2669 45.4188 21.2782C45.5798 21.302 45.7266 21.3824 45.8322 21.5047C45.9377 21.627 45.9949 21.7828 45.9931 21.9435C45.9939 22.1045 45.934 22.2602 45.8249 22.3801C45.7158 22.4999 45.5655 22.5754 45.4031 22.5919C45.2812 22.6033 45.1588 22.6076 45.0364 22.6048L41.1388 22.6035Z" fill="#114A43"/>
<path d="M41.1532 32.5332C39.8102 32.5332 38.4659 32.5332 37.1229 32.5332C36.6695 32.5332 36.3856 32.3309 36.3344 31.9859C36.3168 31.8992 36.3172 31.8098 36.3354 31.7232C36.3537 31.6366 36.3895 31.5545 36.4406 31.4818C36.4918 31.4092 36.5573 31.3474 36.6332 31.3004C36.7091 31.2533 36.7939 31.2218 36.8824 31.2078C37.013 31.1903 37.1449 31.1842 37.2766 31.1897H45.039C45.1389 31.1897 45.2388 31.1897 45.3386 31.1897C45.5132 31.1963 45.6787 31.2686 45.8009 31.3919C45.9231 31.5152 45.9928 31.6799 45.9957 31.8523C45.9984 31.9407 45.9828 32.0286 45.9498 32.1108C45.9169 32.1929 45.8672 32.2676 45.804 32.3301C45.7407 32.3926 45.6652 32.4418 45.582 32.4745C45.4988 32.5071 45.4097 32.5227 45.3202 32.5202C44.5541 32.5345 43.788 32.5267 43.0219 32.5267L41.1532 32.5332Z" fill="#114A43"/>
<path d="M41.1624 39.1326C39.8076 39.1326 38.4527 39.1326 37.0979 39.1326C36.6143 39.1326 36.3239 38.8733 36.3239 38.4609C36.3227 38.3016 36.381 38.1474 36.4876 38.0278C36.5943 37.9083 36.7418 37.8316 36.9021 37.8125C37.0234 37.8003 37.1455 37.796 37.2674 37.7995H45.2309C45.7039 37.8151 46.0036 38.0835 45.993 38.4868C45.9825 38.8901 45.6829 39.1352 45.2269 39.1352C43.8721 39.1365 42.5172 39.1326 41.1624 39.1326Z" fill="#114A43"/>
<path d="M27.2093 29.7126C27.0713 30.3494 26.9464 30.9485 26.815 31.5476L25.2539 38.741C25.2302 38.8486 25.2092 38.9563 25.179 39.0613C25.0476 39.5204 24.7558 39.7227 24.359 39.6358C24.0055 39.5567 23.7742 39.1378 23.8636 38.728C24.0502 37.8635 24.2389 36.9964 24.4299 36.1266C24.8942 33.9973 25.3577 31.8675 25.8203 29.7373C25.886 29.4377 26.02 29.2004 26.3393 29.1174C26.462 29.0772 26.5944 29.0766 26.7174 29.1155C26.8405 29.1544 26.9478 29.2309 27.024 29.334C27.0992 29.4533 27.1613 29.5803 27.2093 29.7126Z" fill="#114A43"/>
<path d="M22.2038 30.3545C22.7356 30.3637 23.2424 30.579 23.6147 30.9539C23.987 31.3288 24.1948 31.8332 24.1934 32.3581C24.2131 33.3631 23.1158 34.4044 22.1539 34.3889C21.234 34.3733 20.1275 33.3761 20.1604 32.314C20.1731 31.7884 20.3943 31.2886 20.7764 30.9222C21.1585 30.5558 21.671 30.352 22.2038 30.3545ZM22.1815 32.9793C22.3551 32.9755 22.5201 32.9041 22.6405 32.7807C22.7609 32.6572 22.8269 32.4918 22.8241 32.3205C22.8212 32.1547 22.754 31.9964 22.6365 31.8779C22.5189 31.7595 22.3599 31.69 22.192 31.6837C22.0187 31.6867 21.8533 31.756 21.7307 31.877C21.6082 31.9979 21.538 32.1611 21.5349 32.3321C21.5392 32.5008 21.6084 32.6615 21.7285 32.7815C21.8487 32.9015 22.0107 32.9717 22.1815 32.978V32.9793Z" fill="#114A43"/>
<path d="M28.8256 38.3209C28.2919 38.3174 27.7813 38.1053 27.4059 37.7309C27.0304 37.3565 26.8208 36.8505 26.8229 36.3238C26.8312 35.8028 27.0463 35.3059 27.4221 34.9399C27.7979 34.574 28.3042 34.3682 28.8322 34.3669C29.0971 34.3645 29.3599 34.4141 29.6053 34.5128C29.8507 34.6114 30.0738 34.7573 30.2616 34.9417C30.4494 35.1262 30.5982 35.3457 30.6993 35.5874C30.8004 35.8291 30.8518 36.0882 30.8506 36.3497C30.8499 36.6107 30.7969 36.8689 30.6945 37.1096C30.5922 37.3502 30.4426 37.5684 30.2543 37.7517C30.066 37.935 29.8428 38.0796 29.5976 38.1773C29.3524 38.275 29.09 38.3238 28.8256 38.3209ZM29.4826 36.3549C29.4858 36.1836 29.4201 36.018 29.3 35.8943C29.1798 35.7706 29.0149 35.6989 28.8414 35.6948C28.6681 35.6982 28.503 35.7675 28.3805 35.8884C28.258 36.0093 28.1877 36.1723 28.1843 36.3432C28.1879 36.5095 28.2546 36.6683 28.3711 36.7884C28.4877 36.9084 28.6456 36.981 28.8138 36.9916C28.9005 36.9932 28.9867 36.9778 29.0673 36.9463C29.148 36.9148 29.2215 36.8679 29.2837 36.8082C29.3459 36.7485 29.3955 36.6773 29.4296 36.5986C29.4638 36.5199 29.4818 36.4353 29.4826 36.3497V36.3549Z" fill="#114A43"/>
</g>
<defs>
<clipPath id="clip0_1_249">
<rect width="40" height="40" fill="white" transform="translate(17 17)"/>
</clipPath>
</defs>
</svg>
