<svg width="72" height="72" viewBox="0 0 72 72" fill="none" xmlns="http://www.w3.org/2000/svg">
<rect width="72" height="72" rx="36" fill="#114A43"/>
<g clip-path="url(#clip0_1_188)">
<path d="M31.5473 55.9987C31.4645 55.9609 31.3854 55.9183 31.3001 55.8867C30.9153 55.7461 30.5827 55.4941 30.346 55.164C30.1092 54.8338 29.9795 54.4409 29.9737 54.0369C29.9737 53.8312 29.9638 53.6243 29.9737 53.4199C29.9873 53.1765 29.8995 53.1022 29.6486 53.1034C27.4853 53.1132 25.322 53.1034 23.1587 53.1034C21.5381 53.1034 19.9187 53.1095 18.2993 53.1034C17.1484 53.0961 16.2658 52.4012 16.0396 51.3412C16.0072 51.1589 15.9939 50.9737 16 50.7887C16 41.1283 16 31.4678 16 21.8074C16 20.3981 16.942 19.4756 18.3821 19.4707C20.0131 19.4659 21.6436 19.4659 23.2737 19.4707C23.3646 19.4801 23.4563 19.463 23.5374 19.4214C23.6185 19.3799 23.6854 19.3158 23.7298 19.2371C23.8608 19.0305 24.0452 18.8619 24.2642 18.7486C24.4831 18.6352 24.7287 18.5812 24.9759 18.5921C25.5074 18.5921 26.039 18.5921 26.5606 18.5921C27.0971 16.8615 28.1813 15.9889 29.7598 15.9938C31.2655 15.9938 32.3632 16.9005 32.8787 18.5921C33.3509 18.5921 33.8392 18.6042 34.325 18.5921C34.6135 18.5693 34.9027 18.6254 35.1607 18.7543C35.4188 18.8831 35.6357 19.0797 35.7874 19.3223C35.8357 19.3702 35.8936 19.4077 35.9575 19.4325C36.0213 19.4572 36.0897 19.4686 36.1583 19.4659C37.8098 19.4756 39.4613 19.4659 41.1116 19.4744C42.307 19.4805 43.2044 20.1948 43.4183 21.2999C43.4488 21.4926 43.4608 21.6878 43.4541 21.8828C43.4541 25.9273 43.4541 29.9705 43.4541 34.0125V34.4214H43.825C45.3084 34.4214 46.7918 34.4129 48.2752 34.4287C48.5842 34.4287 48.6844 34.3642 48.6807 34.0393C48.6658 32.9854 49.2271 32.1992 50.1307 31.9363C50.432 31.8462 50.7502 31.8253 51.061 31.8753C51.3717 31.9252 51.6667 32.0446 51.9233 32.2243C52.1798 32.404 52.3911 32.6392 52.5409 32.9119C52.6907 33.1845 52.7749 33.4874 52.7872 33.7971C52.7971 33.9894 52.7872 34.1829 52.7872 34.4214H53.1877C53.8145 34.43 54.4425 34.4105 55.0667 34.4555C55.3205 34.477 55.5567 34.5919 55.7281 34.7774C55.8995 34.9628 55.9936 35.2051 55.9914 35.4559C56.0025 36.8347 56.0099 38.2136 55.9827 39.5936C55.9827 39.8273 55.7973 40.0561 55.6996 40.2873C55.6329 40.448 55.5142 40.6098 55.5142 40.7741C55.5027 45.105 55.4998 49.4366 55.5056 53.7691C55.5056 54.9484 55.0927 55.5374 53.9715 55.9597C53.9554 55.9658 53.9455 55.9889 53.9332 56.0047L31.5473 55.9987ZM30.682 39.4476H41.1709C41.2859 39.4427 41.4011 39.4452 41.5158 39.4549C41.6569 39.4744 41.7861 39.5432 41.88 39.6486C41.974 39.754 42.0263 39.8891 42.0276 40.0293C42.0267 40.1695 41.9753 40.3049 41.8824 40.4112C41.7896 40.5175 41.6614 40.5879 41.5208 40.6098C41.4168 40.619 41.3123 40.6214 41.208 40.6171H31.1728V53.7874C31.1728 54.5492 31.4608 54.8328 32.2297 54.8328H53.2644C54.0147 54.8328 54.3052 54.5456 54.3052 53.8032C54.3052 49.5243 54.3052 45.2449 54.3052 40.9652V40.6208H44.4159C44.312 40.6208 44.207 40.6269 44.1031 40.6208C43.9557 40.6092 43.8178 40.5446 43.7157 40.4394C43.6135 40.3341 43.5543 40.1955 43.5493 40.05C43.549 39.8993 43.6072 39.7541 43.712 39.6442C43.8167 39.5343 43.9602 39.4679 44.113 39.4586C44.2169 39.45 44.3219 39.4586 44.4258 39.4586H54.7861V35.625H52.833C52.5746 37.0185 51.9343 37.7097 50.8551 37.7694C50.3915 37.7984 49.9323 37.6666 49.5571 37.397C48.939 36.9674 48.672 36.3565 48.6634 35.6372H36.8283C36.6911 36.9126 35.979 37.6903 34.8949 37.7682C34.4206 37.804 33.9489 37.6719 33.5648 37.3958C32.9467 36.9662 32.6846 36.354 32.6698 35.636H30.6808L30.682 39.4476ZM29.9403 48.8452C29.9531 48.7911 29.9622 48.7362 29.9675 48.6809C29.9675 45.9962 29.9675 43.3111 29.9675 40.6257C29.9589 40.5174 29.9116 40.4156 29.834 40.3384C29.7157 40.2223 29.623 40.0833 29.5617 39.9302C29.5004 39.7771 29.4719 39.6132 29.478 39.4488C29.4854 38.1722 29.478 36.8931 29.478 35.6214C29.478 34.8596 29.9008 34.4336 30.6721 34.4166C31.2259 34.4056 31.7847 34.4166 32.3336 34.4166C32.4436 34.4166 32.5536 34.4056 32.6896 34.3971C32.6896 34.1683 32.6809 33.9736 32.6896 33.7801C32.7136 33.2925 32.9148 32.8297 33.2566 32.4761C33.5983 32.1224 34.0578 31.9015 34.5512 31.8536C35.0556 31.8043 35.5604 31.9426 35.9665 32.2412C36.3725 32.5398 36.6504 32.9772 36.7454 33.4673C36.7949 33.7107 36.7763 33.9541 36.8122 34.1975C36.8233 34.2742 36.9099 34.3995 36.963 34.4008C37.6701 34.4154 38.3784 34.4105 39.1263 34.4105V34.0454C39.1263 30.7636 39.1263 27.4818 39.1263 24.2C39.1263 23.7923 39.1263 23.791 38.711 23.791C32.7122 23.791 26.7135 23.789 20.7148 23.785C20.4008 23.785 20.3081 23.8677 20.3093 24.1829C20.3209 27.7122 20.3229 31.2414 20.3155 34.7707C20.3155 35.2076 20.0744 35.4839 19.7098 35.4802C19.3451 35.4766 19.1226 35.2161 19.1226 34.7902C19.1226 31.1782 19.1226 27.5678 19.1226 23.959C19.1226 23.0608 19.6591 22.5534 20.5776 22.5497C21.4231 22.5497 22.2699 22.5497 23.1167 22.5497C23.2254 22.5497 23.3355 22.5375 23.4591 22.5302C23.4591 21.9862 23.443 21.4824 23.4653 20.9798C23.4764 20.7096 23.3726 20.6585 23.1228 20.6597C21.5455 20.6695 19.9669 20.6597 18.3895 20.6658C17.5761 20.6658 17.1855 21.0613 17.1855 21.867C17.1855 31.4861 17.1855 41.1051 17.1855 50.7242C17.1855 51.5372 17.586 51.929 18.4217 51.929H29.614C29.7252 51.929 29.8352 51.9181 29.9712 51.9108V50.4334C29.9712 50.0305 29.9712 50.0305 29.5682 50.0305C26.5891 50.0305 23.6107 50.0305 20.6332 50.0305C20.4249 50.0374 20.2167 50.0144 20.0151 49.9624C19.4601 49.7957 19.1251 49.3101 19.1251 48.6858C19.1251 45.0234 19.1251 41.3611 19.1251 37.6988C19.1232 37.637 19.1257 37.5752 19.1325 37.5138C19.1406 37.3847 19.1946 37.2625 19.285 37.1686C19.3754 37.0747 19.4964 37.0151 19.627 37.0002C19.7623 36.9745 19.9025 36.9991 20.0206 37.0693C20.1386 37.1394 20.2261 37.2501 20.2661 37.3799C20.3024 37.5185 20.3178 37.6617 20.3118 37.8047C20.3118 41.355 20.3118 44.9046 20.3118 48.4533C20.3118 48.8501 20.3118 48.8513 20.7284 48.8513H29.9341L29.9403 48.8452ZM34.7354 22.5485C34.7533 22.5008 34.7661 22.4515 34.7738 22.4012C34.7738 21.641 34.7738 20.88 34.7738 20.1182C34.7738 19.8541 34.6205 19.7628 34.3695 19.764C33.7008 19.764 33.032 19.764 32.3632 19.764C32.0974 19.764 31.8811 19.6728 31.7773 19.4342C31.7201 19.2695 31.6884 19.0971 31.6833 18.9231C31.6552 18.6119 31.5509 18.312 31.3794 18.0491C31.2079 17.7863 30.9742 17.5682 30.6984 17.4137C30.4226 17.2591 30.1128 17.1727 29.7957 17.1617C29.4785 17.1507 29.1634 17.2156 28.8772 17.3507C28.1355 17.6988 27.7968 18.3061 27.7325 19.0935C27.693 19.5924 27.4952 19.7604 26.9908 19.7616H25.1465C24.7459 19.7616 24.6643 19.8383 24.6631 20.2253C24.6631 20.8727 24.6767 21.5214 24.6557 22.1724C24.6458 22.4609 24.7212 22.5546 25.0265 22.5534C28.1503 22.5424 31.2729 22.5473 34.3955 22.5473L34.7354 22.5485ZM40.318 34.4141C40.8928 34.4141 41.4231 34.4008 41.9534 34.4202C42.2118 34.4287 42.2637 34.3363 42.2637 34.1014C42.2571 30.009 42.2551 25.9167 42.2575 21.8244C42.2575 21.0686 41.8471 20.6707 41.0733 20.6634C40.4774 20.6634 39.8828 20.6634 39.287 20.6634C38.2845 20.6634 37.2819 20.6634 36.2794 20.6634C36.1805 20.6634 36 20.7474 35.9988 20.796C35.979 21.3668 35.9864 21.9388 35.9864 22.5436H36.3659C37.2214 22.5436 38.078 22.5436 38.9347 22.5436C39.4675 22.5436 39.91 22.7469 40.1437 23.2239C40.2605 23.4861 40.3179 23.7701 40.3118 24.0563C40.3217 27.3666 40.318 30.678 40.318 33.9882V34.4141ZM35.6082 34.8462C35.6082 34.5383 35.6279 34.2279 35.602 33.9213C35.5736 33.5732 35.4512 33.2544 35.0939 33.0998C34.5117 32.8467 33.9109 33.2483 33.8874 33.9237C33.8652 34.5322 33.8713 35.1407 33.8874 35.7419C33.8872 35.8535 33.9096 35.9639 33.9531 36.067C33.9966 36.17 34.0605 36.2635 34.1409 36.3421C34.2214 36.4206 34.3169 36.4827 34.422 36.5246C34.527 36.5666 34.6394 36.5876 34.7527 36.5865C34.9799 36.5846 35.1971 36.4948 35.3577 36.3365C35.5182 36.1783 35.609 35.9643 35.6106 35.7407C35.6193 35.4449 35.6106 35.1516 35.6106 34.8486L35.6082 34.8462ZM51.5918 34.8303C51.5918 34.5322 51.6116 34.2328 51.5918 33.9359C51.5609 33.5769 51.4361 33.2483 51.0652 33.0937C50.4805 32.8503 49.8921 33.2641 49.8736 33.9456C49.8575 34.5407 49.8624 35.137 49.8736 35.7334C49.8711 35.8445 49.8911 35.9551 49.9324 36.0586C49.9737 36.1621 50.0355 36.2565 50.1141 36.3364C50.1928 36.4162 50.2868 36.4798 50.3906 36.5236C50.4945 36.5674 50.6061 36.5904 50.7191 36.5913C50.8345 36.5926 50.949 36.5712 51.0559 36.5283C51.1628 36.4854 51.2598 36.4219 51.3414 36.3414C51.4229 36.261 51.4873 36.1654 51.5308 36.0601C51.5742 35.9549 51.5958 35.8421 51.5943 35.7285C51.6005 35.4291 51.6005 35.1309 51.6005 34.8328L51.5918 34.8303Z" fill="white"/>
<path d="M34.6859 44.8962L36.2002 42.9588C36.283 42.8541 36.3683 42.7495 36.4573 42.6485C36.7219 42.3479 37.0297 42.2955 37.3103 42.4976C37.3792 42.5456 37.4373 42.607 37.4812 42.6781C37.525 42.7491 37.5536 42.8282 37.5652 42.9106C37.5768 42.9929 37.5711 43.0767 37.5485 43.1568C37.526 43.2369 37.4869 43.3115 37.4339 43.3762C36.6922 44.306 35.939 45.2252 35.1742 46.1339C35.1254 46.1923 35.0649 46.2401 34.9965 46.2743C34.9281 46.3085 34.8532 46.3284 34.7765 46.3328C34.6999 46.3371 34.6232 46.3258 34.5512 46.2996C34.4792 46.2733 34.4136 46.2326 34.3583 46.1802C33.9463 45.8443 33.5478 45.4974 33.163 45.1396C33.1054 45.0905 33.0585 45.0304 33.025 44.9631C32.9915 44.8957 32.972 44.8224 32.9678 44.7475C32.9635 44.6727 32.9745 44.5977 33.0002 44.5271C33.0259 44.4565 33.0657 44.3916 33.1172 44.3364C33.1681 44.2775 33.2305 44.2292 33.3006 44.1943C33.3708 44.1594 33.4473 44.1386 33.5257 44.1332C33.6041 44.1277 33.6828 44.1377 33.7572 44.1626C33.8316 44.1875 33.9002 44.2267 33.959 44.278C34.1927 44.4618 34.4177 44.6638 34.6859 44.8962Z" fill="white"/>
<path d="M50.1232 44.8877C50.5769 44.3267 51.012 43.7924 51.4434 43.2545C51.5967 43.0622 51.7327 42.8553 51.8921 42.6667C52.1653 42.3442 52.4818 42.2907 52.7649 42.5012C53.048 42.7117 53.0949 43.1182 52.8415 43.4358C52.3199 44.0906 51.7834 44.7331 51.253 45.383C51.0639 45.6155 50.8822 45.8516 50.6819 46.0767C50.4162 46.3809 50.0836 46.4162 49.7734 46.1595C49.391 45.8414 49.016 45.5149 48.6484 45.1798C48.3641 44.923 48.3419 44.5847 48.5706 44.3279C48.7992 44.0711 49.1516 44.0675 49.4359 44.3011C49.6621 44.4837 49.876 44.6759 50.1232 44.8877Z" fill="white"/>
<path d="M39.4218 51.4252L41.1116 49.366C41.1679 49.292 41.229 49.2217 41.2946 49.1555C41.3937 49.054 41.5278 48.9926 41.6705 48.9834C41.8132 48.9742 41.9542 49.0177 42.066 49.1056C42.1844 49.1927 42.2647 49.3209 42.2907 49.4642C42.3166 49.6075 42.2862 49.7551 42.2057 49.8772C42.1067 50.0221 41.9985 50.1607 41.8818 50.2922C41.2736 51.037 40.6666 51.7842 40.0535 52.5253C39.6938 52.961 39.3946 52.9817 38.9669 52.6117C38.6368 52.327 38.3043 52.0458 37.978 51.7598C37.6516 51.4739 37.6195 51.1392 37.8704 50.869C38.1214 50.5988 38.4477 50.6159 38.7629 50.8751C38.9916 51.0479 39.1931 51.2305 39.4218 51.4252Z" fill="white"/>
<path d="M40.3846 44.02C40.7394 44.02 41.0942 44.0139 41.4477 44.02C41.8272 44.0285 42.0868 44.2634 42.0955 44.5944C42.0966 44.6743 42.0814 44.7536 42.0507 44.8275C42.02 44.9015 41.9744 44.9686 41.9166 45.0247C41.8589 45.0809 41.7902 45.125 41.7147 45.1543C41.6392 45.1837 41.5585 45.1977 41.4774 45.1956C40.7579 45.2094 40.0381 45.2094 39.3178 45.1956C39.2364 45.1992 39.1552 45.1866 39.079 45.1585C39.0027 45.1305 38.933 45.0875 38.874 45.0323C38.815 44.9771 38.7679 44.9107 38.7357 44.8371C38.7034 44.7635 38.6865 44.6843 38.6861 44.6041C38.6861 44.2658 38.9568 44.0248 39.3536 44.0175C39.696 44.0151 40.0397 44.02 40.3846 44.02Z" fill="white"/>
<path d="M34.4239 51.7416C34.0803 51.7416 33.7354 51.7477 33.3917 51.7416C32.9961 51.7319 32.7291 51.4848 32.7328 51.1465C32.7365 50.8082 32.9937 50.5697 33.3719 50.5636C34.0798 50.553 34.789 50.553 35.4994 50.5636C35.8776 50.5636 36.1372 50.8179 36.1434 51.1429C36.1496 51.4678 35.8789 51.7319 35.4883 51.7416C35.1335 51.7489 34.7787 51.7416 34.4239 51.7416Z" fill="white"/>
<path d="M50.2172 51.7416C49.8624 51.7416 49.5077 51.7489 49.1541 51.7416C48.766 51.7319 48.5224 51.4982 48.5187 51.1623C48.515 50.8264 48.7524 50.5733 49.1368 50.566C49.8563 50.5522 50.5761 50.5522 51.2964 50.566C51.3775 50.5618 51.4587 50.5741 51.5347 50.6024C51.6108 50.6306 51.68 50.674 51.7381 50.73C51.7962 50.7859 51.8419 50.8531 51.8723 50.9273C51.9026 51.0015 51.917 51.0812 51.9145 51.1611C51.9145 51.497 51.6672 51.7234 51.2791 51.7441H50.2147L50.2172 51.7416Z" fill="white"/>
<path d="M45.1476 44.0203C45.4925 44.0203 45.8362 44.0203 46.181 44.0203C46.5853 44.0276 46.8412 44.2637 46.8412 44.6081C46.8412 44.9525 46.5865 45.1934 46.1798 45.1983C45.4925 45.2093 44.804 45.208 44.1154 45.1983C43.6889 45.1983 43.4318 44.9549 43.4405 44.5898C43.4491 44.2247 43.7025 44.0239 44.1154 44.0166C44.4603 44.0166 44.8015 44.0203 45.1476 44.0203Z" fill="white"/>
<path d="M45.1427 51.7416C44.7879 51.7416 44.4331 51.7489 44.0783 51.7416C43.6914 51.7319 43.4454 51.4982 43.4405 51.1636C43.4372 51.0833 43.4511 51.0032 43.4811 50.9286C43.5112 50.8539 43.5568 50.7862 43.615 50.73C43.6732 50.6737 43.7428 50.63 43.8192 50.6018C43.8956 50.5735 43.9771 50.5614 44.0585 50.566C44.778 50.5522 45.4975 50.5522 46.2169 50.566C46.6001 50.5721 46.8436 50.8228 46.835 51.1599C46.8263 51.497 46.5878 51.7307 46.2008 51.7416C45.8522 51.7489 45.4974 51.7416 45.1427 51.7416Z" fill="white"/>
<path d="M24.962 39.0121C24.4193 39.0121 23.8754 39.0121 23.3327 39.0121C22.6689 39.0121 22.2746 38.664 22.2634 38.0227C22.2424 36.8714 22.2449 35.7189 22.2634 34.5664C22.2622 34.4443 22.2861 34.3232 22.3338 34.2104C22.3814 34.0977 22.4518 33.9956 22.5407 33.9104C22.6295 33.8252 22.735 33.7586 22.8508 33.7147C22.9665 33.6708 23.0901 33.6504 23.2141 33.6549C24.3621 33.6427 25.5113 33.6427 26.6617 33.6549C26.7884 33.6497 26.9147 33.6701 27.033 33.7149C27.1513 33.7597 27.259 33.8278 27.3495 33.9152C27.44 34.0026 27.5113 34.1073 27.559 34.2228C27.6068 34.3384 27.63 34.4624 27.6272 34.5871C27.6445 35.7286 27.6482 36.8714 27.6272 38.0129C27.6148 38.664 27.2254 39.0048 26.5653 39.0121C26.0288 39.0157 25.496 39.0121 24.962 39.0121ZM23.4613 37.772C24.4193 37.772 25.3465 37.772 26.2736 37.7634C26.3267 37.7634 26.4244 37.6417 26.4244 37.5699C26.4355 36.7363 26.4244 35.9039 26.4343 35.0715C26.4343 34.8804 26.3651 34.8281 26.1784 34.8281C25.344 34.8354 24.5083 34.8281 23.6727 34.8281C23.6013 34.8342 23.5306 34.8464 23.4613 34.8646V37.772Z" fill="white"/>
<path d="M22.2526 44.1868C22.2526 43.6526 22.2526 43.1183 22.2526 42.5841C22.2612 41.9086 22.6408 41.5362 23.3231 41.5338C24.4068 41.5289 25.4918 41.5289 26.578 41.5338C27.2269 41.5338 27.6238 41.9074 27.6299 42.5415C27.6423 43.6514 27.6423 44.7609 27.6299 45.8699C27.6238 46.493 27.2504 46.8825 26.62 46.8922C25.4934 46.9117 24.3669 46.9117 23.2403 46.8922C22.6222 46.8813 22.265 46.4906 22.2514 45.8833C22.2439 45.3174 22.2526 44.7515 22.2526 44.1868ZM26.416 42.7265H23.4789V45.6825H26.416V42.7265Z" fill="white"/>
<path d="M22.2523 28.3558C22.2523 27.8313 22.2523 27.3079 22.2523 26.7834C22.2597 26.0727 22.6404 25.6979 23.3562 25.6954C24.4094 25.6954 25.4635 25.6954 26.5183 25.6954C27.2378 25.6954 27.6309 26.0715 27.6309 26.7737C27.6375 27.8528 27.6375 28.9318 27.6309 30.0109C27.6247 30.679 27.2328 31.0624 26.5566 31.066C25.4812 31.0717 24.4061 31.0717 23.3315 31.066C22.6479 31.066 22.2609 30.6875 22.2511 30.0182C22.2449 29.4657 22.2523 28.9107 22.2523 28.3558ZM23.4712 29.8697H26.4095V26.8942H23.4712V29.8697Z" fill="white"/>
<path d="M33.0578 27.7283H29.8314C29.7264 27.7283 29.6213 27.7283 29.5187 27.7186C29.3716 27.7045 29.2351 27.6375 29.1351 27.5303C29.0352 27.4232 28.979 27.2835 28.9772 27.1381C28.9797 26.9928 29.0359 26.8534 29.1354 26.7461C29.2349 26.6387 29.3707 26.5708 29.5174 26.5551C29.5996 26.5473 29.6822 26.5449 29.7647 26.5478H36.4066C36.4697 26.5478 36.5302 26.5478 36.5945 26.5478C36.953 26.5722 37.1916 26.8083 37.1916 27.1344C37.1936 27.2119 37.1796 27.289 37.1504 27.3609C37.1211 27.4329 37.0773 27.4982 37.0215 27.5529C36.9657 27.6076 36.8992 27.6505 36.826 27.679C36.7528 27.7074 36.6744 27.7209 36.5958 27.7186C36.0531 27.7332 35.5092 27.7247 34.9665 27.7259L33.0578 27.7283Z" fill="white"/>
<path d="M32.1481 30.2206C31.3013 30.2206 30.4557 30.2206 29.609 30.2206C29.4768 30.2289 29.3455 30.1934 29.2362 30.1197C29.1269 30.0461 29.0457 29.9385 29.0057 29.8142C28.9606 29.7086 28.9529 29.5912 28.9839 29.4808C29.0148 29.3704 29.0826 29.2735 29.1763 29.2057C29.3099 29.1096 29.4696 29.055 29.6349 29.0487C31.3178 29.0381 33.0002 29.0381 34.6822 29.0487C35.0852 29.0487 35.351 29.2921 35.3535 29.6341C35.3559 29.976 35.0728 30.2255 34.6563 30.2279C33.8206 30.2243 32.9837 30.2219 32.1481 30.2206Z" fill="white"/>
</g>
<defs>
<clipPath id="clip0_1_188">
<rect width="40" height="40" fill="white" transform="translate(16 16)"/>
</clipPath>
</defs>
</svg>
