<svg width="74" height="74" viewBox="0 0 74 74" fill="none" xmlns="http://www.w3.org/2000/svg">
<rect x="1" y="1" width="72" height="72" rx="36" stroke="#114A43"/>
<g clip-path="url(#clip0_1_212)">
<path d="M50.575 26.7565H50.1911C49.2403 26.7565 48.2882 26.7565 47.3362 26.7565C47.0787 26.7598 46.8231 26.7114 46.5846 26.6143C46.3461 26.5171 46.1295 26.3732 45.9476 26.1909C45.7657 26.0086 45.6221 25.7917 45.5254 25.553C45.4288 25.3143 45.3809 25.0587 45.3847 24.8012C45.3847 23.7199 45.3847 22.6398 45.3847 21.5022H44.9624C39.4253 21.5022 33.8882 21.5137 28.3511 21.492C27.2276 21.492 26.3804 21.8132 25.9748 22.9662L24.7169 22.6373C24.7693 22.476 24.8052 22.3442 24.8563 22.2188C25.0927 21.6209 25.5037 21.1081 26.0358 20.7472C26.5679 20.3863 27.1963 20.1941 27.8392 20.1957C33.8741 20.1957 39.9086 20.1987 45.9426 20.2046C46.1751 20.214 46.397 20.3045 46.5697 20.4606C47.7213 21.5764 48.8449 22.7115 49.9723 23.8478C50.534 24.4147 51.0753 24.9995 51.6358 25.569C51.847 25.7827 51.8918 26.0284 51.8918 26.3086C51.8918 32.7121 51.8918 39.1151 51.8918 45.5176C51.8918 48.2548 51.8982 50.9908 51.8918 53.728C51.9003 54.4371 51.6747 55.1293 51.25 55.6973C50.8252 56.2652 50.225 56.6773 49.5423 56.8695C49.2405 56.953 48.929 56.996 48.6158 56.9975C41.7159 57.0052 34.8164 57.0052 27.9173 56.9975C26.7733 56.9975 25.857 56.5266 25.2147 55.5899C24.8198 55.0029 24.6156 54.3085 24.6298 53.6013C24.6375 48.701 24.6375 43.8016 24.6298 38.9031V38.5857H25.9364V38.9914C25.9364 43.8374 25.9466 48.6835 25.9287 53.5283C25.9287 54.451 26.5314 55.2879 27.1892 55.5425C27.4419 55.6376 27.7099 55.6857 27.98 55.6846C34.8364 55.6922 41.6929 55.6846 48.5493 55.6986C49.6869 55.6986 50.5648 54.6749 50.5827 53.7177C50.5827 53.6089 50.5827 53.5014 50.5827 53.3927C50.5827 44.6543 50.5827 35.9151 50.5827 27.175L50.575 26.7565ZM49.6242 25.4474L46.7629 22.4914C46.6998 23.2682 46.6788 24.0478 46.7002 24.8268C46.7091 25.194 46.9817 25.4385 47.3643 25.4449C48.0861 25.4564 48.8078 25.4474 49.6242 25.4474Z" fill="#114A43"/>
<path d="M53.6615 53.2481L52.6749 52.3766C53.2763 51.715 53.1689 50.9088 53.1689 50.1257C53.1689 40.4361 53.1689 30.7461 53.1689 21.0556C53.1689 20.0485 52.7286 19.3319 51.8892 19.0414C51.6235 18.9535 51.345 18.9102 51.0651 18.9135C44.2522 18.9066 37.4397 18.9041 30.6276 18.9058C30.0962 18.8923 29.5772 19.0683 29.1637 19.4023L28.2858 18.3261C28.584 18.1457 28.845 17.9294 29.1445 17.8142C29.5335 17.6563 29.946 17.5642 30.3653 17.5417C37.3394 17.5263 44.314 17.5237 51.289 17.534C53.0972 17.534 54.3359 18.9915 54.4651 20.6397C54.4754 20.7587 54.4651 20.8777 54.4651 20.9967C54.4651 30.9781 54.4651 40.9595 54.4651 50.9408C54.4928 51.783 54.2063 52.6053 53.6615 53.2481Z" fill="#114A43"/>
<path d="M40.1982 40.5564H41.4868V40.1725C41.4868 37.5116 41.4868 34.8516 41.4868 32.1925C41.4868 31.5667 41.6967 31.3582 42.3237 31.3582H44.5606C45.1787 31.3582 45.3898 31.5731 45.3898 32.2015V40.5602H46.6618V41.8565H29.8329V40.5768H31.1126V40.1891C31.1126 39.237 31.1126 38.285 31.1126 37.3342C31.1126 36.8594 31.3583 36.6163 31.8331 36.6137C32.6546 36.6086 33.4761 36.6086 34.2977 36.6137C34.7673 36.6137 35.0105 36.8697 35.0117 37.3406C35.0117 38.3989 35.0117 39.4584 35.0117 40.5397H36.3004V34.826C36.3004 34.1504 36.4987 33.952 37.1616 33.9507C37.9191 33.9507 38.6754 33.9507 39.4317 33.9507C39.9704 33.9507 40.1995 34.1785 40.1995 34.7185C40.1995 36.5357 40.1995 38.3524 40.1995 40.1686L40.1982 40.5564ZM42.8202 32.6826V40.5448H44.0615V32.6826H42.8202ZM38.8725 35.352H37.6261V40.5474H38.8725V35.352ZM32.4294 37.9343V40.5436H33.6771V37.9343H32.4294Z" fill="#114A43"/>
<path d="M19.4293 30.7095C19.4369 27.0125 22.3059 24.1461 25.9926 24.1525C29.5693 24.1525 32.4306 27.088 32.4114 30.753C32.3922 34.2503 29.6371 37.269 25.9312 37.2703C22.1959 37.2728 19.4446 34.2426 19.4293 30.7095ZM25.8916 35.9625C28.9026 35.9625 31.0563 33.5042 31.0998 30.7607C31.1153 30.0691 30.9923 29.3814 30.7379 28.7381C30.4836 28.0948 30.1031 27.5089 29.6188 27.015C29.1345 26.521 28.5562 26.129 27.9181 25.862C27.2799 25.595 26.5948 25.4584 25.9031 25.4603C23.0635 25.4501 20.7396 27.7906 20.7409 30.6979C20.7473 33.4032 22.8933 35.9369 25.8916 35.9625Z" fill="#114A43"/>
<path d="M37.6069 48.4557C37.6069 49.5051 37.6069 50.5539 37.6069 51.6024C37.6069 52.1591 37.3765 52.3869 36.8173 52.3869C34.7417 52.3869 32.6657 52.3869 30.5892 52.3869C30.0492 52.3869 29.8124 52.1552 29.8124 51.6191C29.8124 49.5119 29.8124 47.4034 29.8124 45.2937C29.8124 44.6705 30.03 44.4568 30.6506 44.4568H36.7802C37.3829 44.4568 37.6043 44.6731 37.6069 45.2732C37.6094 46.3405 37.6069 47.4 37.6069 48.4557ZM31.1356 45.8542V51.0534H36.276V45.858L31.1356 45.8542Z" fill="#114A43"/>
<path d="M40.2097 45.8119V44.4888H47.9606V45.8171L40.2097 45.8119Z" fill="#114A43"/>
<path d="M47.9709 49.7456V51.0752H40.2213V49.7456H47.9709Z" fill="#114A43"/>
<path d="M34.3719 28.0336V26.7744H42.1241V28.0336H34.3719Z" fill="#114A43"/>
<path d="M47.9721 47.1517V48.4135H40.211V47.1517H47.9721Z" fill="#114A43"/>
<path d="M36.9709 24.1703H42.1177V25.4346H36.9683L36.9709 24.1703Z" fill="#114A43"/>
<path d="M34.368 25.441V24.1754H35.6387V25.441H34.368Z" fill="#114A43"/>
<path d="M28.5161 29.4016H27.2608C27.0279 28.7708 26.9294 28.7042 26.2371 28.7042C25.9351 28.7042 25.6318 28.6978 25.3298 28.7042C24.8985 28.717 24.626 28.9909 24.6311 29.3927C24.6311 29.7766 24.9088 30.0415 25.3259 30.0517C25.7431 30.0619 26.1475 30.0517 26.5583 30.0517C27.5973 30.0607 28.4611 30.8489 28.5161 31.8432C28.5763 32.9335 27.8558 33.8165 26.7924 33.9534L26.5775 33.9841V34.6521H25.2722V33.9828C24.6017 33.9316 24.0616 33.6757 23.679 33.1434C23.4383 32.823 23.3134 32.4306 23.3246 32.0301H24.6145C24.7091 32.5778 25.1071 32.684 25.5998 32.6558C25.9018 32.6392 26.2051 32.6558 26.5071 32.6558C26.923 32.6443 27.216 32.3628 27.207 32.0006C27.1981 31.6385 26.9153 31.3826 26.5135 31.3723C26.1117 31.3621 25.6919 31.3723 25.2812 31.3723C24.2433 31.3634 23.3757 30.5712 23.322 29.5885C23.2593 28.4214 23.9618 27.541 25.0777 27.413C25.1289 27.4066 25.1801 27.3977 25.2504 27.3862L25.2799 26.7834H26.5659V27.3862C27.2352 27.4386 27.7778 27.6894 28.1591 28.2256C28.4112 28.5642 28.5374 28.9801 28.5161 29.4016Z" fill="#114A43"/>
</g>
<defs>
<clipPath id="clip0_1_212">
<rect width="35.0525" height="39.4686" fill="white" transform="translate(19.4293 17.5314)"/>
</clipPath>
</defs>
</svg>
