<svg width="74" height="74" viewBox="0 0 74 74" fill="none" xmlns="http://www.w3.org/2000/svg">
<rect x="1" y="1" width="72" height="72" rx="36" stroke="#114A43"/>
<g clip-path="url(#clip0_1_235)">
<path d="M37.7167 17.0575C37.819 17.1013 37.9225 17.1439 38.0236 17.1902C38.7386 17.5175 39.1283 18.0761 39.1259 18.8611C39.1259 19.5293 39.0638 20.1999 39.0297 20.8644C39.0236 21.0067 39.0175 21.1479 39.0114 21.2818C40.4571 21.8209 40.7726 22.41 40.4352 23.9021C41.0028 24.2465 41.5704 24.5872 42.1343 24.9353C42.4583 25.1361 42.5582 25.4319 42.4169 25.7215C42.2524 26.0598 41.898 26.145 41.5241 25.943C40.9005 25.6047 40.2793 25.2627 39.6448 24.945C39.5005 24.8827 39.3383 24.8758 39.1892 24.9256C36.8466 25.7953 34.5085 26.6752 32.1749 27.5653C32.0113 27.6345 31.8781 27.7602 31.7997 27.9195C30.8929 29.9656 30.3774 32.1632 30.2797 34.3989C30.2626 34.7859 30.2955 34.82 30.6889 34.82H42.0527C44.3413 34.82 45.9953 36.1161 46.5592 38.3275C46.5829 38.3747 46.6172 38.4157 46.6595 38.4474C46.7018 38.4791 46.7508 38.5005 46.8028 38.51C47.1073 38.5538 47.4118 38.5648 47.7224 38.5891C47.8731 38.6054 48.025 38.5718 48.1548 38.4935C48.2846 38.4153 48.3851 38.2967 48.441 38.1559C48.6223 37.7675 48.7356 37.3509 48.776 36.9242C48.8502 35.4407 48.3972 34.0642 47.7736 32.7413C47.2791 31.6947 46.6262 30.749 45.9271 29.8278C45.2848 28.9999 44.5596 28.2398 43.7627 27.5592C43.4838 27.3158 43.4229 27.0578 43.5569 26.7949C43.742 26.4298 44.1781 26.369 44.5228 26.6659C45.6481 27.6142 46.6415 28.7087 47.4764 29.9202C48.3789 31.259 49.1584 32.6525 49.5944 34.2151C49.9099 35.3409 50.1072 36.4837 49.8807 37.6557C49.826 37.9376 49.7381 38.2122 49.6188 38.4735C49.4895 38.7179 49.3451 38.9541 49.1864 39.1806C49.4337 39.4758 49.6631 39.7854 49.8734 40.108C50.0194 40.39 50.1307 40.6888 50.2046 40.9976C50.2168 41.0754 50.253 41.1475 50.3083 41.2036C50.3636 41.2597 50.4351 41.2971 50.5128 41.3104C50.9718 41.4243 51.4201 41.5778 51.8526 41.7692C52.0924 41.8845 52.3072 42.0459 52.4846 42.2441C52.662 42.4424 52.7986 42.6736 52.8866 42.9246C52.9746 43.1756 53.0123 43.4415 52.9974 43.707C52.9826 43.9726 52.9156 44.2326 52.8002 44.4722C52.5818 44.9481 52.1836 45.3181 51.6928 45.5013C51.202 45.6845 50.6586 45.6658 50.1815 45.4495C49.9493 45.3389 49.6962 45.2793 49.439 45.2746C49.1818 45.27 48.9267 45.3205 48.6907 45.4227C48.2486 45.6089 47.7906 45.7611 47.3119 45.9375L48.8125 50.6182C48.9988 50.5233 49.1511 50.4454 49.2997 50.3663C50.2911 49.8503 51.4299 50.1691 51.9427 51.1087C52.4555 52.0482 52.1059 53.1703 51.1376 53.7301C47.7565 55.6859 44.0953 56.7046 40.2172 56.9857C35.5182 57.3265 31.0434 56.4551 26.7914 54.4299C26.3048 54.1916 25.8319 53.9262 25.3749 53.6352C24.9608 53.3775 24.6621 52.9701 24.5412 52.4979C24.4202 52.0256 24.4863 51.5249 24.7257 51.1002C24.9586 50.6759 25.3445 50.3561 25.8048 50.2057C26.2652 50.0554 26.7656 50.0858 27.2043 50.2908C27.7694 50.5561 28.3212 50.8531 28.9192 51.1561C29.1226 50.5318 29.3187 49.9391 29.5087 49.3489C29.9058 48.1172 30.298 46.8832 30.6999 45.6527C30.7294 45.5679 30.7407 45.4778 30.7331 45.3883C30.7256 45.2988 30.6993 45.2118 30.6561 45.1331C29.9805 43.6799 29.3147 42.2219 28.6586 40.7591C28.621 40.6882 28.5986 40.6103 28.5928 40.5304C28.5869 40.4504 28.5978 40.3701 28.6248 40.2945C28.6517 40.219 28.694 40.1499 28.7491 40.0915C28.8042 40.0332 28.8709 39.987 28.9448 39.9558C29.2603 39.8122 29.5733 39.9425 29.745 40.3124C30.3369 41.5903 30.9435 42.8682 31.5026 44.1546C32.0394 45.4261 32.9929 46.4775 34.2065 47.1363C36.0797 48.1744 37.9993 48.161 39.9773 47.4028C42.6641 46.372 45.3802 45.4179 48.0671 44.3846C48.6542 44.1595 49.2096 43.9331 49.838 44.0536C50.0847 44.106 50.3212 44.1981 50.5384 44.3262C50.9208 44.5465 51.4031 44.4211 51.6735 43.9976C51.7356 43.905 51.7776 43.8005 51.7967 43.6907C51.8158 43.5809 51.8116 43.4683 51.7843 43.3602C51.7571 43.2522 51.7075 43.151 51.6387 43.0633C51.5699 42.9756 51.4834 42.9033 51.3849 42.8512C50.6322 42.4422 49.81 42.2536 48.9696 42.4069C48.2778 42.5347 47.6043 42.7781 46.9344 43.0045C46.0647 43.2978 45.4606 42.8828 45.4594 41.9615C45.4594 41.0865 45.4594 40.2126 45.4594 39.3388C45.4594 37.3721 44.0843 35.9944 42.1197 35.992C38.2709 35.992 34.4208 35.9835 30.5708 35.9981C29.8973 35.9981 29.4746 35.7376 29.2018 35.123C28.3894 33.2914 27.5514 31.472 26.7244 29.6464C25.9814 28.0083 25.2393 26.3702 24.4979 24.7321C24.2544 24.1905 24.0205 23.6367 23.7745 23.1C23.5443 22.5925 23.0985 22.3942 22.6503 22.5889C22.2021 22.7836 22.0413 23.2655 22.2849 23.7852C23.1017 25.5921 23.9206 27.3986 24.7415 29.2046C25.4967 30.8712 26.2522 32.5373 27.0082 34.203C27.5198 35.3348 28.0252 36.4715 28.5392 37.6033C28.6537 37.8528 28.7049 38.0901 28.5209 38.3262C28.2371 38.6914 27.711 38.6159 27.4978 38.1619C27.0788 37.2687 26.6696 36.3705 26.2604 35.4723C25.3883 33.5543 24.5182 31.6358 23.6502 29.717C22.8902 28.0424 22.1217 26.3714 21.3787 24.6882C21.1862 24.2927 21.0595 23.8685 21.0036 23.4323C20.9195 22.4587 21.5529 21.6469 22.4932 21.3962C22.9361 21.2815 23.4052 21.3234 23.8207 21.5148C24.2363 21.7063 24.5728 22.0354 24.7732 22.4465C25.0765 23.055 25.3481 23.6757 25.6258 24.2939C26.1008 25.343 26.5685 26.3945 27.0423 27.4424C27.7317 28.9685 28.4219 30.4939 29.1129 32.0184C29.1531 32.1048 29.2006 32.1876 29.2688 32.3202C29.4149 31.6594 29.5124 31.0533 29.6865 30.4679C29.9387 29.6014 30.2334 28.747 30.5257 27.8927C30.5842 27.7235 30.5696 27.6493 30.4039 27.5568C29.4149 26.9836 29.1774 25.8396 29.8424 24.9097C29.8656 24.8757 29.8863 24.8404 29.9399 24.7588C29.4198 24.2197 28.8912 23.6769 28.3675 23.1305C27.9375 22.6826 27.7183 22.1568 27.8291 21.5301C27.8906 21.157 28.0675 20.8125 28.3348 20.5449C28.6022 20.2773 28.9467 20.1001 29.3199 20.038C29.896 19.9297 30.4831 19.8554 31.0409 19.6887C32.7753 19.169 34.4586 18.5228 36.0042 17.5577C36.2965 17.3751 36.6132 17.2242 36.914 17.0587L37.7167 17.0575ZM43.848 47.2239L43.5155 47.3456C42.2975 47.7935 41.0893 48.2535 39.8701 48.6844C37.8714 49.3927 35.9116 49.2771 33.997 48.3691C33.9166 48.3314 33.8338 48.2998 33.7278 48.2547C33.282 49.647 32.846 51.0077 32.4014 52.3926C36.7971 53.5306 41.1015 53.4186 45.3924 52.0531L43.848 47.2239ZM38.3306 55.9098C39.0613 55.8697 39.7921 55.8551 40.5229 55.7881C42.9966 55.5447 45.4192 55.081 47.6993 54.0429C48.6529 53.6097 49.6042 53.1691 50.5469 52.7103C50.9732 52.5034 51.1108 52.0823 50.9293 51.7062C50.7381 51.3083 50.2972 51.2194 49.8161 51.4336C48.6639 51.9509 47.5202 52.4924 46.3424 52.9452C44.5033 53.6535 42.5667 54.0198 40.6264 54.2754C38.8409 54.509 37.0407 54.5188 35.26 54.1537C34.0627 53.9103 32.8533 53.7058 31.6731 53.3991C29.9752 52.9573 28.3723 52.2575 26.8279 51.4275C26.387 51.1914 25.9644 51.3058 25.7598 51.677C25.5552 52.0482 25.6964 52.5083 26.1495 52.7261C27.2944 53.2762 28.4211 53.8823 29.6062 54.3301C32.4087 55.3877 35.3319 55.8745 38.333 55.9098H38.3306ZM37.9457 18.9597C37.9667 18.832 37.9475 18.7008 37.8908 18.5844C37.8341 18.468 37.7426 18.3721 37.629 18.3098C37.3854 18.1699 37.1625 18.2246 36.9311 18.3585C36.1723 18.8027 35.4281 19.281 34.6401 19.6668C33.0519 20.424 31.3579 20.9357 29.6159 21.1844C29.3285 21.2282 29.1043 21.3426 29.0142 21.6347C28.9241 21.9268 29.0459 22.1471 29.2493 22.3516C29.7718 22.8761 30.2931 23.4006 30.7998 23.9398C30.8514 24.0084 30.9266 24.0556 31.0109 24.0722C31.0952 24.0889 31.1827 24.0738 31.2565 24.0298C31.5695 23.8996 31.8887 23.7864 32.2053 23.6647L37.5401 21.6603C37.6996 21.6007 37.8202 21.5459 37.8263 21.3268C37.8543 20.5394 37.9055 19.7496 37.9481 18.9597H37.9457ZM31.3174 26.5905C31.3966 26.5673 31.5464 26.532 31.6828 26.4773C33.8265 25.6521 35.9689 24.8258 38.1101 23.9982C38.4158 23.8765 38.7288 23.7779 39.0309 23.6477C39.1759 23.5887 39.2919 23.4752 39.3541 23.3316C39.4163 23.188 39.4196 23.0258 39.3634 22.8797C39.3114 22.7371 39.2067 22.6197 39.0707 22.5518C38.9348 22.4839 38.778 22.4706 38.6326 22.5146C38.5436 22.5383 38.4561 22.5676 38.3707 22.6023C36.4877 23.3325 34.6056 24.0627 32.7242 24.7929C32.159 25.0108 31.5878 25.2152 31.0263 25.4392C30.8888 25.488 30.7744 25.5862 30.7053 25.7146C30.6362 25.843 30.6174 25.9925 30.6524 26.1341C30.7243 26.4018 30.9593 26.588 31.3199 26.5905H31.3174ZM46.5069 51.6612C46.8942 51.5006 47.2559 51.3594 47.603 51.1939C47.6554 51.1695 47.6919 51.0198 47.67 50.9505C47.2023 49.4714 46.7281 47.9947 46.2474 46.5205C46.2243 46.4661 46.197 46.4136 46.1658 46.3635C45.8382 46.4852 45.5337 46.6069 45.2207 46.7055C45.0112 46.7712 44.9491 46.8588 45.0307 47.0827C45.2194 47.6049 45.3814 48.1355 45.5507 48.6649C45.8711 49.6482 46.1841 50.6353 46.5093 51.6612H46.5069ZM31.2224 52.0458C31.265 51.9959 31.2833 51.9813 31.2894 51.9642C31.7441 50.5598 32.1964 49.1549 32.6462 47.7497C32.6597 47.7134 32.6652 47.6746 32.6625 47.636C32.6597 47.5974 32.6488 47.5598 32.6304 47.5257C32.3089 47.2178 31.9739 46.9233 31.6207 46.6032C31.0994 48.2292 30.5903 49.8198 30.0763 51.4081C30.0276 51.5602 30.0556 51.6332 30.2078 51.6831C30.5464 51.7914 30.8814 51.9241 31.2224 52.0458ZM46.6554 41.7984L49.0037 41.1291C48.8929 40.2431 47.804 39.5993 46.6554 39.7903V41.7984Z" fill="#114A43"/>
<path d="M36.9471 37.1115C38.6852 37.1115 40.4244 37.1054 42.1625 37.1115C43.2331 37.1176 44.0345 37.7261 44.2732 38.7058C44.3194 38.927 44.3395 39.1529 44.3329 39.3788C44.3329 40.5508 44.2952 41.7252 44.35 42.8948C44.3853 43.6372 44.0857 44.1033 43.4353 44.3455C41.7715 44.9674 40.126 45.6696 38.4172 46.1382C36.4952 46.6651 34.8424 46.0006 33.5879 44.4599C33.2822 44.085 33.1007 43.608 32.8876 43.165C32.3249 41.9759 31.778 40.7796 31.2287 39.5845C31.0618 39.2194 30.94 38.8336 30.7415 38.4892C30.3286 37.7675 30.8073 37.0738 31.6391 37.0944C33.4077 37.1419 35.1774 37.1115 36.9471 37.1115ZM31.9534 38.3066L34.0057 42.8315L39.0773 41.0169C40.3453 40.563 41.6107 40.1042 42.8811 39.6587C43.0869 39.5869 43.171 39.4932 43.1612 39.2656C43.1369 38.6644 42.7788 38.292 42.1661 38.292C38.8427 38.292 35.5184 38.292 32.1933 38.292C32.1324 38.2932 32.0727 38.2932 31.9534 38.3066ZM34.5976 43.8733C34.963 44.1702 35.2346 44.4562 35.5623 44.6461C35.9953 44.9082 36.482 45.0692 36.9861 45.1171C37.4902 45.1649 37.9985 45.0983 38.4732 44.9224C39.0981 44.7033 39.7034 44.4282 40.3233 44.1921C41.003 43.9305 41.6887 43.6822 42.3732 43.4291C43.1564 43.1406 43.1564 43.1406 43.1564 42.3118V40.8088L34.5976 43.8733Z" fill="#114A43"/>
<path d="M37.8216 33.4326C37.6852 33.4752 37.578 33.5117 37.4709 33.5397C37.3269 33.5874 37.1699 33.5771 37.0334 33.511C36.897 33.4448 36.7917 33.328 36.7401 33.1855C36.6859 33.0439 36.69 32.8867 36.7514 32.7481C36.8127 32.6095 36.9264 32.5008 37.0677 32.4456C37.3892 32.308 37.7205 32.1961 38.0421 32.0683C38.3636 31.9405 38.4891 31.7287 38.3929 31.4878C38.2966 31.2468 38.0616 31.1506 37.7498 31.2809C37.047 31.5717 36.3844 31.579 35.801 31.0289C35.6439 30.8796 35.5183 30.7003 35.4319 30.5016C35.3454 30.3029 35.2997 30.0888 35.2976 29.8722C35.2954 29.6555 35.3368 29.4406 35.4193 29.2402C35.5018 29.0399 35.6237 28.8581 35.7779 28.7056C35.9849 28.506 35.9581 28.3588 35.8692 28.1495C35.8082 28.0278 35.7944 27.888 35.8303 27.7568C35.8663 27.6256 35.9496 27.5123 36.0641 27.4387C36.2736 27.2805 36.5245 27.2562 36.7194 27.4278C36.8814 27.5689 36.9812 27.7807 37.1347 27.9985C37.2066 27.9766 37.3198 27.9401 37.4331 27.9097C37.5767 27.8628 37.7329 27.8722 37.8697 27.9362C38.0066 28.0002 38.114 28.1139 38.17 28.2541C38.2262 28.3947 38.2244 28.5518 38.1651 28.6912C38.1058 28.8305 37.9937 28.9407 37.8533 28.9977C37.5646 29.1279 37.2565 29.2192 36.9654 29.3482C36.8232 29.3989 36.6987 29.4898 36.6073 29.6099C36.5669 29.6762 36.5411 29.7503 36.5316 29.8273C36.5222 29.9043 36.5293 29.9825 36.5525 30.0565C36.5974 30.1192 36.6557 30.1713 36.723 30.2089C36.7904 30.2466 36.8652 30.2689 36.9422 30.2744C37.1055 30.2817 37.2748 30.188 37.4392 30.132C37.7848 30.0043 38.1638 29.9989 38.5129 30.1167C38.8621 30.2346 39.1602 30.4685 39.3575 30.7795C39.5618 31.093 39.6466 31.4694 39.5966 31.8402C39.5465 32.211 39.3648 32.5515 39.0847 32.7997C39.0235 32.8436 38.9811 32.9089 38.9657 32.9826C38.9504 33.0563 38.9633 33.133 39.0019 33.1977C39.044 33.2915 39.0715 33.3913 39.0835 33.4934C39.0963 33.6274 39.0618 33.7616 38.9859 33.8727C38.9101 33.9839 38.7976 34.065 38.6681 34.1019C38.5506 34.1453 38.4214 34.1452 38.3039 34.1017C38.1864 34.0582 38.0883 33.9741 38.0275 33.8646C37.9501 33.7249 37.8814 33.5806 37.8216 33.4326Z" fill="#114A43"/>
</g>
<defs>
<clipPath id="clip0_1_235">
<rect width="40" height="40" fill="white" transform="translate(17 17)"/>
</clipPath>
</defs>
</svg>
