<svg width="117" height="32" viewBox="0 0 117 32" fill="none" xmlns="http://www.w3.org/2000/svg">
<path d="M10 25.3684C8.43275 25.3684 6.94737 25.1579 5.54386 24.7368C4.16374 24.2924 2.98246 23.5789 2 22.5965C1.01754 21.5906 0.350877 20.2573 0 18.5965H3.19298C3.52047 19.6491 4.04678 20.4678 4.77193 21.0526C5.52047 21.6374 6.37427 22.0468 7.33333 22.2807C8.2924 22.4912 9.25146 22.5965 10.2105 22.5965C11.1696 22.5965 12.0585 22.4678 12.8772 22.2105C13.7193 21.9298 14.3977 21.4854 14.9123 20.8772C15.4503 20.269 15.7193 19.4854 15.7193 18.5263C15.7193 17.7778 15.5789 17.1696 15.2982 16.7018C15.0409 16.2339 14.6667 15.8596 14.1754 15.5789C13.7076 15.2749 13.1462 15.0292 12.4912 14.8421C11.6257 14.5614 10.7018 14.3275 9.7193 14.1404C8.73684 13.9532 7.76608 13.731 6.80702 13.4737C5.87135 13.2164 4.99415 12.8889 4.17544 12.4912C3.73099 12.2573 3.29825 11.9766 2.87719 11.6491C2.47953 11.2982 2.12865 10.9006 1.82456 10.4561C1.54386 9.98831 1.30994 9.46199 1.12281 8.87719C0.959064 8.2924 0.877193 7.64912 0.877193 6.94737C0.877193 5.89474 1.04094 4.98246 1.36842 4.21053C1.69591 3.4386 2.14035 2.78363 2.70175 2.24561C3.26316 1.7076 3.91813 1.27485 4.66667 0.947369C5.41521 0.619883 6.21053 0.385966 7.05263 0.245615C7.91813 0.0818717 8.78363 0 9.64912 0C11.076 0 12.4094 0.222222 13.6491 0.666666C14.9123 1.08772 15.9532 1.77778 16.7719 2.73684C17.614 3.69591 18.0702 4.99415 18.1403 6.63158H15.1579C15.0409 5.64912 14.7134 4.87719 14.1754 4.31579C13.6374 3.75439 12.9708 3.35672 12.1754 3.12281C11.3801 2.88889 10.538 2.77193 9.64912 2.77193C8.99415 2.77193 8.32749 2.83041 7.64912 2.94737C6.99415 3.06433 6.38596 3.27485 5.82456 3.57895C5.28655 3.85965 4.8538 4.25731 4.52632 4.77193C4.19883 5.26316 4.03509 5.89474 4.03509 6.66667C4.03509 7.27485 4.14035 7.81287 4.35088 8.2807C4.5848 8.74854 4.88889 9.1462 5.26316 9.47368C5.66082 9.77778 6.09357 10.0351 6.5614 10.2456C7.68421 10.7135 8.92398 11.0643 10.2807 11.2982C11.6608 11.5088 12.9474 11.8246 14.1404 12.2456C14.8421 12.4795 15.4854 12.7719 16.0702 13.1228C16.655 13.4737 17.1462 13.883 17.5439 14.3509C17.9649 14.8187 18.2807 15.3567 18.4912 15.9649C18.7251 16.5497 18.8421 17.2164 18.8421 17.9649C18.8421 19.3216 18.6082 20.4795 18.1403 21.4386C17.6725 22.3743 17.0292 23.1345 16.2105 23.7193C15.3918 24.3041 14.4444 24.7251 13.3684 24.9825C12.3158 25.2398 11.193 25.3684 10 25.3684Z" fill="white"/>
<path d="M29.1349 25.2982C27.1933 25.2982 25.8249 24.7719 25.0296 23.7193C24.2577 22.6667 23.8717 21.1696 23.8717 19.2281V9.22807H20.8542V6.59649H23.8717V1.05263H26.8542V6.59649H32.5384V9.22807H26.8542V18.8421C26.8542 19.5439 26.9126 20.1871 27.0296 20.7719C27.1466 21.3333 27.3922 21.7895 27.7664 22.1404C28.1407 22.4678 28.7021 22.6433 29.4507 22.6667C29.9887 22.6667 30.4565 22.5731 30.8542 22.386C31.2752 22.1988 31.6261 21.9766 31.9068 21.7193L33.205 23.8947C32.8074 24.2222 32.3863 24.4912 31.9419 24.7018C31.5208 24.9123 31.0764 25.0643 30.6086 25.1579C30.1641 25.2515 29.6729 25.2982 29.1349 25.2982Z" fill="white"/>
<path d="M40.9764 25.2982C40.1343 25.2982 39.3156 25.193 38.5203 24.9825C37.7484 24.7485 37.0466 24.4094 36.415 23.9649C35.8068 23.4971 35.3156 22.924 34.9413 22.2456C34.5905 21.5439 34.415 20.7368 34.415 19.8246C34.415 18.7719 34.6022 17.883 34.9764 17.1579C35.3741 16.4328 35.9004 15.8597 36.5554 15.4386C37.2103 15.0175 37.9706 14.7135 38.8361 14.5263C39.7016 14.3392 40.6022 14.2456 41.5378 14.2456H46.9764C46.9764 13.193 46.8244 12.2807 46.5203 11.5088C46.2396 10.7368 45.7717 10.1404 45.1168 9.7193C44.4618 9.27485 43.5963 9.05263 42.5203 9.05263C41.8653 9.05263 41.2571 9.12281 40.6957 9.26316C40.1343 9.40351 39.6548 9.62573 39.2571 9.92982C38.8595 10.2339 38.5671 10.6433 38.3799 11.1579H35.187C35.3507 10.3158 35.6665 9.60234 36.1343 9.01754C36.6255 8.40936 37.2103 7.91813 37.8887 7.54386C38.5905 7.1462 39.339 6.8538 40.1343 6.66667C40.9296 6.47953 41.725 6.38596 42.5203 6.38596C45.1869 6.38596 47.0817 7.16959 48.2045 8.73684C49.3273 10.3041 49.8887 12.4211 49.8887 15.0877V25.0877H47.3975L47.222 22.7368C46.7074 23.4386 46.0875 23.9766 45.3624 24.3509C44.6372 24.7251 43.8887 24.9708 43.1168 25.0877C42.3682 25.2281 41.6548 25.2982 40.9764 25.2982ZM41.2571 22.6667C42.4267 22.6667 43.4326 22.4795 44.2747 22.1053C45.1402 21.7076 45.8068 21.1345 46.2747 20.386C46.7425 19.6374 46.9764 18.7251 46.9764 17.6491V16.7368H43.7133C42.9413 16.7368 42.1811 16.7485 41.4326 16.7719C40.684 16.7953 40.0057 16.8889 39.3975 17.0526C38.7893 17.2164 38.2981 17.4971 37.9238 17.8947C37.5729 18.2924 37.3975 18.8655 37.3975 19.614C37.3975 20.3158 37.5729 20.8889 37.9238 21.3333C38.2981 21.7778 38.7776 22.117 39.3624 22.3509C39.9706 22.5614 40.6022 22.6667 41.2571 22.6667Z" fill="white"/>
<path d="M53.4567 25.0877V6.59649H56.3339L56.4742 9.40351C56.8953 8.72515 57.4333 8.16374 58.0883 7.7193C58.7432 7.27485 59.4567 6.94737 60.2286 6.73684C61.0239 6.50292 61.7959 6.38596 62.5444 6.38596C64.3456 6.38596 65.7491 6.76023 66.7549 7.50877C67.7842 8.25731 68.5093 9.27485 68.9304 10.5614C69.3748 11.8246 69.597 13.2632 69.597 14.8772V25.0877H66.6146V15.6842C66.6146 14.8187 66.5561 13.9883 66.4391 13.193C66.3456 12.3977 66.135 11.6842 65.8076 11.0526C65.5035 10.4211 65.059 9.92982 64.4742 9.57895C63.8894 9.20468 63.1058 9.01754 62.1234 9.01754C60.907 9.01754 59.866 9.35673 59.0005 10.0351C58.1584 10.7135 57.5152 11.6257 57.0707 12.7719C56.6497 13.9181 56.4391 15.2047 56.4391 16.6316V25.0877H53.4567Z" fill="white"/>
<path d="M83.7662 25.3684C81.3334 25.3684 79.3334 24.9123 77.7662 24C76.2223 23.0877 75.0761 21.7778 74.3276 20.0702C73.6024 18.3626 73.2399 16.3158 73.2399 13.9298V0.245615H78.2574V14.1754C78.2574 15.2982 78.4211 16.3626 78.7486 17.3684C79.0995 18.3509 79.6726 19.1579 80.4679 19.7895C81.2866 20.3977 82.3977 20.7018 83.8013 20.7018C85.2281 20.7018 86.3276 20.3977 87.0995 19.7895C87.8714 19.1579 88.4094 18.3392 88.7135 17.3333C89.0176 16.3275 89.1697 15.2749 89.1697 14.1754V0.245615H94.1872V13.9298C94.1872 16.2924 93.8246 18.3392 93.0995 20.0702C92.3744 21.7778 91.2399 23.0877 89.696 24C88.1521 24.9123 86.1755 25.3684 83.7662 25.3684Z" fill="white"/>
<path d="M97.5312 32V6.59649H102.128L102.373 8.91228C103.122 8 103.976 7.33333 104.935 6.91228C105.917 6.49123 106.993 6.2807 108.163 6.2807C109.987 6.2807 111.496 6.70176 112.689 7.54386C113.882 8.38597 114.771 9.53216 115.356 10.9825C115.964 12.4094 116.268 14.0117 116.268 15.7895C116.268 17.614 115.952 19.2515 115.321 20.7018C114.713 22.1287 113.789 23.2632 112.549 24.1053C111.309 24.924 109.765 25.3333 107.917 25.3333C107.122 25.3333 106.373 25.2398 105.672 25.0526C104.97 24.8655 104.35 24.6199 103.812 24.3158C103.274 23.9883 102.818 23.6257 102.444 23.2281V32H97.5312ZM107.075 20.9123C108.175 20.9123 109.04 20.6667 109.672 20.1754C110.303 19.6842 110.748 19.0643 111.005 18.3158C111.262 17.5439 111.391 16.7485 111.391 15.9298C111.391 15.0409 111.251 14.1988 110.97 13.4035C110.689 12.6082 110.221 11.9766 109.566 11.5088C108.935 11.0175 108.069 10.7719 106.97 10.7719C105.987 10.7719 105.157 11.0175 104.479 11.5088C103.8 11.9766 103.286 12.5965 102.935 13.3684C102.584 14.1404 102.408 14.9708 102.408 15.8596C102.408 16.7485 102.572 17.5789 102.9 18.3509C103.251 19.1228 103.765 19.7427 104.444 20.2105C105.145 20.6784 106.022 20.9123 107.075 20.9123Z" fill="white"/>
</svg>
